<?xml version="1.0" encoding="UTF-8"?>
<svg xmlns="http://www.w3.org/2000/svg" width="600" height="340" version="1.1" viewBox="0 0 600 340">
  <!-- Generator: Adobe Illustrator 28.7.1, SVG Export Plug-In . SVG Version: 1.2.0 Build 142)  -->
  <g>
    <g id="Layer_1">
      <g>
        <path d="M530,288.5l.3-4c3-.3,5.4-2.7,5.5-5.7l1.6-28.6c0-1.7-.5-3.3-1.7-4.5-.7-.8-1.7-1.3-2.7-1.6l1.1-16.3h.3c1.8,0,3.2-1.4,3.2-3.2v-6.8c0-1.8-1.4-3.2-3.2-3.2h-1.9c-1.1-1-2.6-1.6-4.1-1.6h-3.6c0-.3.1-.6.1-.9v-6.5c0-1.8-1.4-3.2-3.2-3.2h-26c-.4-5.4-.6-10.9-.5-16.3,1.2-.6,2.3-1.2,3.5-1.8.3-.2.6-.4.9-.6l8.3-7.8c7.1-3.4,14.2-6.7,21-10.8,2-1.2-19.2,13.7-29.6,18.9,15,1.3,35.5-.5,44.2-13.6.3-.4.5-.9.8-1.3.3-.5.5-.9.7-1.4,3.8-7.8.3-17.1-8.9-14.9-7.5,1.8-10.1,4.3-16.6,8.3-6,3.8-13.7,12.8-21.3,19.4,3.2-1.6,6.4-3.1,9.7-4.7l-9.7,4.7c-1,.5-2,1-2.9,1.5.3-9.6,1.2-19.2,2.6-28.7.8-.3,1.7-.6,2.5-.9,1.4-.5,1.6-2.4.4-3.2-.5,0-.9-.1-1.4-.2,0,0,0,0,0,0,.3-.1.5-.2.8-.3,9-3.7,17.3-9,25.3-14.5,1.9-1.3-13.5,13.2-21.8,16.9,18.2,1.1,42.1-1.9,50.4-19.1,4.4-9,.3-19.8-10.3-17.3-8.6,2.1-11.7,4.9-19.1,9.6-7.2,4.5-16.6,15.7-25.7,23.4.1-.8.3-1.6.4-2.4,2-11.3,4.7-22.5,8.1-33.4.4-.2.7-.3,1.1-.5,1-.4,1.9-1.1,2.6-1.8l6.6-6.7c4.5-2.4,16.6-4.3,14.6-3.4-7.7,3.2-14.7,7.8-22.3,11.3,18.5,1.6,44.5-.8,53.3-18.8,4.4-9,.3-19.8-10.3-17.3-8.6,2.1-11.7,4.9-19.1,9.6-7,4.4-15.9,14.9-24.8,22.6,2.9-8.5,6.3-16.9,10.3-25,8.4-7.5,19-14.7,23.9-20.8,5.5-6.9,8.7-9.6,11.7-17.9,3.7-10.2-6.5-15.5-16-12.1-19.8,7-24.7,34.7-24.7,53.3,4.3-9.3,9.4-18.3,15.4-26.6,1.3-1.8-3.7,11.8-6.6,17.1-.9,1.7-1.9,3.5-2.8,5.3l-6.1,4.3-7.1,17.5c-.2.5-.3,1.1-.2,1.6,0,.3,0,.6-1.1.3-1.2-.4-2.4.7-2,1.9.3.9.5,1.7.8,2.6,0,.1,0,.2.1.4-1.5,4.7-2.9,9.4-4.2,14.2-.9,3.5-1.8,7.1-2.6,10.6,0,0,0,.2,0,.2,0,.1,0,.4-.1.6,0-.2.1-.5.2-.7-3.5-10.3-5.7-22.9-9.1-30.6,0-.1-.1-.2-.2-.4-.1-.3-.2-.5-.3-.7,0-.1-.1-.2-.2-.4,0-.1-.1-.2-.2-.4-4-7.9-5.2-11.9-11.6-18-7.8-7.6-16.8-.4-17.6,9.6-1.7,19.8,19.1,35,35.7,43.1-4.3-6.4-10.4-23.4-9.2-21.5,4.2,6.6,8,13.4,12.4,19.9,0,0,0,0,0,0-.3,1-1.2,2.6-3.2,1.5.4.6.8,1.2,1.2,1.8.3.4.7.7,1.1.7-1.8,8.9-3.2,17.8-4,26.8,0,0,0,0-.1,0,0,0-.9,1.2-2.7,1.9-.3.1-.3.5,0,.7-6.3-3.1-17.6-16.4-15.8-15,5.9,4.4,11.7,9.4,18.5,12.4-6.5-7.9-12.6-18.3-17.9-23.1-5.7-5.1-7.9-8-15-11.1-8.7-3.8-13.8,4.9-11.4,13.2,4.8,16.7,26.5,22.6,42.5,24,0,0,0,0,0,0,.5.2,1,.5,1.6.7-.4,5.1-.7,10.2-.7,15.3-.4.5-.3,1.2,0,1.7,0,3.6,0,7.2.2,10.7,0,1.9.2,3.9.3,5.8h-12.6c-1.8,0-3.2,1.4-3.2,3.2v3.5c0,1.7,1.3,3.1,3,3.2l9.8.7h-16.2c-1.5,0-3,.6-4.1,1.6h-1.9c-1.8,0-3.2,1.4-3.2,3.2v6.8c0,1.8,1.4,3.2,3.2,3.2h.3l1.1,16.2c-1.2.3-2.2.9-3,1.8-1.2,1.3-1.7,3-1.6,4.7l2.5,28.6c.2,2.8,2.3,4.9,4.9,5.4l.3,3.8-58.8-.3v-90.6c0-3.5-1.7-6.7-4.3-8.6,7.7-3.8,14-9.3,16.3-17.4,2.4-8.4-2.7-17-11.4-13.2-7.1,3.1-9.3,6-15,11.1-4.1,3.7-8.7,10.7-13.5,17.4h-5.2c-.8-7-2-14-3.4-21,.4,0,.8-.3,1.1-.7.4-.6.8-1.2,1.2-1.8-2.1,1-2.9-.5-3.2-1.5,0,0,0,0,0,0,4.4-6.5,8.2-13.3,12.4-19.9,1.2-1.9-4.8,15.1-9.2,21.5,16.6-8.1,37.4-23.3,35.7-43.1-.8-10-9.8-17.2-17.6-9.6-6.4,6.2-7.5,10.2-11.6,18,0,.1-.1.2-.2.4,0,.1-.1.2-.2.4-.1.2-.2.5-.3.7,0,.1-.1.2-.2.4-3.3,7.7-5.6,20.3-9.1,30.6,0,.2.1.5.2.7,0-.3-.1-.5-.1-.6,0,0,0-.2,0-.2-.8-3.6-1.7-7.1-2.6-10.6-1.3-4.7-2.6-9.5-4.2-14.2,0-.1.1-.2.1-.4.3-.9.5-1.7.8-2.6.4-1.2-.8-2.3-2-1.9-1,.4-1.1,0-1.1-.3,0-.5,0-1.1-.2-1.6l-7.1-17.5-6.1-4.3c-.9-1.8-1.8-3.5-2.8-5.3-2.9-5.3-7.9-19-6.6-17.1,6,8.3,11.1,17.3,15.4,26.6,0-18.6-4.9-46.4-24.7-53.3-9.5-3.3-19.7,1.9-16,12.1,3,8.3,6.2,11,11.7,17.9,4.9,6.1,15.4,13.4,23.9,20.8,4,8.1,7.4,16.4,10.3,25-8.8-7.7-17.8-18.2-24.8-22.6-7.5-4.7-10.5-7.6-19.1-9.6-10.6-2.6-14.6,8.2-10.3,17.3,8.7,18.1,34.8,20.5,53.3,18.8-7.6-3.5-14.6-8.1-22.3-11.3-2.1-.9,10.1,1,14.6,3.4l6.6,6.7c.8.8,1.6,1.4,2.6,1.8.4.2.7.3,1.1.5,3.5,11,6.2,22.2,8.1,33.4.1.8.3,1.6.4,2.4-9.2-7.7-18.5-18.9-25.7-23.4-7.5-4.7-10.5-7.6-19.1-9.6-10.6-2.6-14.6,8.2-10.3,17.3,8.3,17.1,32.2,20.2,50.4,19.1-8.4-3.7-23.7-18.2-21.8-16.9,7.9,5.6,16.3,10.9,25.3,14.5.3.1.5.2.8.3,0,0,0,0,0,0-.5,0-.9.1-1.4.2-1.2.8-1,2.7.4,3.2.8.3,1.6.6,2.5.9.3,2,.5,4,.8,6h-25.3c-4.6-3-7.5-5-13.7-6.5-5.9-1.4-9.4,1.9-10.2,6.5h-111.9c-6,0-10.8,4.9-10.8,10.8v90.6l-36.7.2,2.8-21c.2-1.7-.3-3.3-1.3-4.6-1-1.2-2.5-2-4.1-2.2l1.3-18.4h.3c1.8,0,3.2-1.4,3.2-3.2v-6.8c0-1.8-1.4-3.2-3.2-3.2h-1.9c-1.1-1-2.6-1.6-4.1-1.6h-1.4c.7-5.1,1.1-10.2,1.3-15.4.1-3.6.2-7.1.2-10.7.3-.5.3-1.2,0-1.7,0-5.1-.3-10.2-.7-15.3.5-.2,1.1-.4,1.6-.7,0,0,0,0,0,0,16-1.4,37.7-7.4,42.5-24,2.4-8.4-2.7-17-11.4-13.2-7.1,3.1-9.3,6-15,11.1-5.3,4.8-11.5,15.2-17.9,23.1,6.8-3,12.6-8,18.5-12.4,1.8-1.4-9.4,11.9-15.8,15,.3-.1.3-.6,0-.7-1.8-.8-2.7-1.9-2.7-1.9,0,0,0,0-.1,0-.9-9-2.2-18-4-26.8.4,0,.8-.3,1.1-.7.4-.6.8-1.2,1.2-1.8-2.1,1-2.9-.5-3.2-1.5,0,0,0,0,0,0,4.4-6.5,8.2-13.3,12.4-19.9,1.2-1.9-4.8,15.1-9.2,21.5,16.6-8.1,37.4-23.3,35.7-43.1-.8-10-9.8-17.2-17.6-9.6-6.4,6.2-7.5,10.2-11.6,18,0,.1-.1.2-.2.4,0,.1-.1.2-.2.4-.1.2-.2.5-.3.7,0,.1-.1.2-.2.4-3.3,7.7-5.6,20.3-9.1,30.6,0,.2.1.5.2.7,0-.3-.1-.5-.1-.6,0,0,0-.2,0-.2-.8-3.6-1.7-7.1-2.6-10.6-1.3-4.7-2.6-9.5-4.2-14.2,0-.1.1-.2.1-.4.3-.9.5-1.7.8-2.6.4-1.2-.8-2.3-2-1.9-1,.4-1.1,0-1.1-.3,0-.5,0-1.1-.2-1.6l-7.1-17.5-6.1-4.3c-.9-1.8-1.8-3.5-2.8-5.3-2.9-5.3-7.9-19-6.6-17.1,6,8.3,11.1,17.3,15.4,26.6,0-18.6-4.9-46.4-24.7-53.3-9.5-3.3-19.7,1.9-16,12.1,3,8.3,6.2,11,11.7,17.9,4.9,6.1,15.4,13.4,23.9,20.8,4,8.1,7.4,16.4,10.3,25-8.8-7.7-17.8-18.2-24.8-22.6-7.5-4.7-10.5-7.6-19.1-9.6-10.6-2.6-14.6,8.2-10.3,17.3,8.7,18.1,34.8,20.5,53.3,18.8-7.6-3.5-14.6-8.1-22.3-11.3-2.1-.9,10.1,1,14.6,3.4l6.6,6.7c.8.8,1.6,1.4,2.6,1.8.4.2.7.3,1.1.5,3.5,11,6.2,22.2,8.1,33.4.1.8.3,1.6.4,2.4-9.2-7.7-18.5-18.9-25.7-23.4-7.5-4.7-10.5-7.6-19.1-9.6-10.6-2.6-14.6,8.2-10.3,17.3,8.3,17.1,32.2,20.2,50.4,19.1-8.4-3.7-23.7-18.2-21.8-16.9,7.9,5.6,16.3,10.9,25.3,14.5.3.1.5.2.8.3,0,0,0,0,0,0-.5,0-.9.1-1.4.2-1.2.8-1,2.7.4,3.2.8.3,1.6.6,2.5.9,1.4,9.5,2.3,19.1,2.6,28.7-1-.5-1.9-1-2.9-1.5l-9.7-4.7c3.2,1.5,6.5,3.1,9.7,4.7-7.6-6.6-15.3-15.7-21.3-19.4-6.5-4.1-9.1-6.5-16.6-8.3-9.2-2.2-12.7,7.1-8.9,14.9.2.5.5,1,.7,1.4.3.4.5.9.8,1.3,8.7,13.1,29.3,14.9,44.2,13.6-10.5-5.3-31.6-20.1-29.6-18.9,6.7,4.1,13.8,7.4,21,10.8l8.3,7.8c.3.2.5.4.9.6,1.2.6,2.3,1.2,3.5,1.8,0,5.6-.1,11.2-.6,16.8-.6-.9-1.6-1.6-2.8-1.6h-27.4v-4.6c0-1.8-1.4-3.2-3.2-3.2h-1.9c-1.1-1-2.6-1.6-4.1-1.6h-3.6c0-.3.1-.6.1-.9v-6.5c0-1.8-1.4-3.2-3.2-3.2h-30.1c0-.2.1-.3.2-.5l1.7-8.5c2.9-5.3,5.8-10.5,8.1-16.1.7-1.6-5.7,17-9.9,25,9.8-5.9,21.8-16.3,21.3-28.2,0-.4,0-.8,0-1.2,0-.4-.1-.8-.2-1.2-1.2-6.5-7.5-10.7-12.2-5.3-3.8,4.5-4.3,7.2-6.5,12.6-2,5-2.7,14.1-4.5,21.6,1.3-2.4,2.6-4.8,3.9-7.2l-3.9,7.2c-.3.6-.6,1.2-.9,1.8h-.5c-4-6-7.7-12.2-11-18.5.4-.6.8-1.1,1.1-1.7.6-.9,0-2.2-1.2-2.2-.3.2-.6.3-1,.5,0,0,0,0,0,0,.1-.2.2-.4.3-.5,3.9-6.3,6.7-13.3,9.1-20.3.6-1.7-2.4,14.2-5.9,20.3,11.8-7.4,25.2-20.1,22.7-34.4-1.3-7.6-8.7-12.4-14.1-6.1-4.4,5.2-5,8.3-7.5,14.5-2.4,6.1-3.2,17.2-5.4,26-.3-.6-.6-1.1-.8-1.7-3.8-7.9-7.2-16-10-24.3.2-.3.3-.5.5-.8.4-.7.7-1.5.8-2.3l1.1-7.1c1.7-3.5,8.4-10.1,7.5-8.6-3.3,5.4-5.6,11.4-8.7,17,12.2-7.3,27.2-20.4,24.5-35.5-1.3-7.6-8.7-12.4-14.1-6.1-4.4,5.2-5,8.3-7.5,14.5-2.4,5.8-3.2,16.4-5.2,25.1-2-6.6-3.6-13.3-4.8-20.1,1.9-8.4,5.2-17.6,5.4-23.6.3-6.7,1.1-9.8-.8-16.4-2.3-8-11-6.7-15.3-.3-9.1,13.2.2,32.6,8.6,44.1-1.5-7.7-2.4-15.6-2.4-23.4,0-1.7,3,9,3.6,13.6.2,1.5.4,3,.6,4.5l-1.8,5.4,3.5,14c.1.4.3.8.6,1.1.2.2.2.4-.6.7-.9.3-1.2,1.5-.4,2.1.6.4,1.1.8,1.7,1.3,0,0,.2.1.2.2,1.2,3.6,2.4,7.1,3.8,10.6,1,2.6,2,5.2,3.2,7.7,0,0,0,.1,0,.2,0,0,.1.2.2.5,0-.2-.1-.3-.2-.5-6.8-4.8-13.8-11.6-19.3-14.9,0,0-.2-.1-.3-.2-.2-.1-.4-.2-.5-.3,0,0-.2,0-.3-.1,0,0-.2,0-.3-.1-6-3.1-8.5-5-15.2-6-8.2-1.2-10.6,7.3-6.6,13.9,7.8,13,27.5,13.1,41.4,10.7-5.6-2-16.9-9.8-15.3-9.2,5.6,2.2,11,4.7,16.6,6.8,0,0,0,0,0,0,.3.8.4,2.1-1.3,2.4.5.2,1,.4,1.6.6.4.1.7,0,1,0,2.8,6.3,6,12.4,9.5,18.4,0,0,0,0-.1,0,0,0,0,1.1-.8,2.4-.1.2,0,.5.3.4-5.3.9-18.2-2.3-16.5-2.2,5.6.1,11.5.6,17-.6-7.5-2-16-5.7-21.5-6.3-5.8-.6-8.5-1.4-14.2-.2-7.1,1.6-6.3,9.2-1.1,13.3,10.4,8.2,26.5,2.2,37.1-4.1,0,0,0,0,0,0,.4,0,.9-.2,1.3-.3,1.3,2.2,2.8,4.4,4.2,6.5h-5.3c-1.8,0-3.2,1.4-3.2,3.2v3.5c0,1.7,1.3,3.1,3,3.2l9.8.7h-16.2c-1.5,0-3,.6-4.1,1.6h-1.9c-1.8,0-3.2,1.4-3.2,3.2v6.8c0,1.8,1.4,3.2,3.2,3.2h.3l1.1,16.2c-1.2.3-2.2.9-3,1.8-1.2,1.3-1.7,3-1.6,4.7l2.5,28.6c.2,2.8,2.3,4.9,4.9,5.4l.7,10.2-60.5.3v3.1l60.8.3.8,11.5c.2,3.3,3,5.9,6.3,5.9h36l1,14.2c.2,3.3,3,5.9,6.3,5.9h42.8c3.3,0,6.1-2.6,6.3-5.9l1.6-23.4c2.3-.6,4.1-2.6,4.5-5.1l.3-2.6,37.4.2v36.2c0,6,4.9,10.8,10.8,10.8h186.9c6,0,10.8-4.9,10.8-10.8v-36.2l59.2-.3,1.1,15.7h0s0,0,0,0c-.4,0-.7,0-1.1,0-4.4-.5-8.7-2.4-12.8-4.3-.8-.4-1.6-.7-2.4-1.1-5.9-2.6-14.9-6-24-6s-5.4.3-7.9.9c-2.8.7-10.3,2.4-10.1,8.3.2,4.9,3.9,10.1,6.7,13.6,6,7.6,14.3,12.2,23.3,12.9.9,0,1.8.1,2.7.1,3.6,0,7.1-.6,10.3-1.9,5.5-2.2,8.1-5.3,10.9-10,1-1.6,2.6-3.6,5.1-3.9h.3c.2,0,.3,0,.4,0,.1,0,.3,0,.4,0h.3c2.5.3,4.1,2.3,5.1,3.9,2.7,4.6,5.4,7.8,10.9,10,3.2,1.3,6.7,1.9,10.3,1.9s1.8,0,2.7-.1c9-.8,17.3-5.4,23.3-12.9,2.8-3.5,6.6-8.7,6.7-13.6.1-3.4-2.4-5.4-5-6.7l.5-7.1,70.3-.4v-3.1l-70-.4ZM513.4,105.2c.3-.2.6-.3.9-.5,0,0,0,0,0,0,0,0,0,0-.1,0-.2,0-.3.2-.5.3-.2,0-.4.2-.5.3,0,0,.1,0,.2,0ZM359.4,132.2c-.2,0-.4-.2-.5-.3,0,0,0,0-.1,0,0,0,0,0,0,0,.3.2.6.3.9.5,0,0,.1,0,.2,0-.2,0-.4-.2-.5-.3ZM138.5,120.1c-.2,0-.4-.2-.5-.3,0,0,0,0-.1,0,0,0,0,0,0,0,.3.2.6.3.9.5,0,0,.1,0,.2,0-.2,0-.4-.2-.5-.3ZM53.8,141.1c.1-.2.2-.5.4-.7,0,0,0,0,0,0,0,0,0,0,0,0,0,.1-.1.3-.2.4,0,.1-.1.3-.2.4,0,0,0,0,0-.1ZM121.4,241.8h41.6l-1.3,18.1-36.5-2.7h-1.6c0-.1-1.6-.2-1.6-.2h-1.8c0-.1-1.6-.2-1.6-.2h-1.6c0-.1-13.8-1.2-13.8-1.2,0,0,0,0,0,0l-1-13.8h19.1ZM108.4,221.8v1.4c0,1.7,1.3,3.1,3,3.2l7.9.6h0c0,.1-14.3.1-14.3.1-1.5,0-3,.6-4.1,1.6h-1.9c-1.8,0-3.2,1.4-3.2,3.2v5.9h-35.5l-1.1-16h49.4ZM61.1,275.4h-.2c-.5,0-1-.1-1.4-.4-.8-.5-1.5-1.3-1.5-2.3l-2.5-28.6c0-.8.2-1.6.8-2.3.3-.3.6-.5.9-.7.4-.2.8-.3,1.2-.3h38.1c.6.6,1.4.9,2.3.9h.3l1,14.4c-.5.3-1,.6-1.4,1-1.2,1.2-1.9,2.8-1.9,4.5l.2,13.6h-35.8ZM67.9,306.5c-1.7,0-3.1-1.3-3.2-3l-.8-11.2v-1.9c-.1,0-.3-1.9-.3-1.9l-.7-10.1h34.1v9.9c.1,0,.2,2,.2,2,0,0,0,0,0,0,0,.7.2,1.4.4,2,.8,2.2,2.8,3.7,5.2,3.9h.1s.7,10.1.7,10.1h-35.8ZM157.2,323.6c-.1,1.7-1.5,3-3.2,3h-42.8c-1.7,0-3.1-1.3-3.2-3l-1-14v-1.6c-.1,0-.2-1.6-.2-1.6l-.7-9.9,8.2.6h1.6c0,.1,1.6.2,1.6.2l41.4,3.1-1.6,23ZM167.1,266.6l-2.8,21.5-.3,2.4-.3,2.4-.3,2.2c-.1.8-.5,1.5-1.1,1.9-.5.4-1,.6-1.6.6-.1,0-.3,0-.4,0h-1.1c0,0-41.4-3.2-41.4-3.2h-1.6c0-.1-1.6-.2-1.6-.2l-8.6-.6h-1.6c0-.1-1.3-.2-1.3-.2h0c-.1,0-.2,0-.3,0-.6-.1-1.1-.4-1.5-.7-.6-.5-.9-1.2-.9-2.1,0,0,0,0,0,0v-2s-.2-9.9-.2-9.9v-1.6s0-1.6,0-1.6l-.2-13.7c0-.6.2-1.2.5-1.7.1-.2.3-.4.4-.5.3-.3.7-.5,1-.6.4-.1.8-.2,1.2-.2h.4s13.5,1,13.5,1h1.6c0,.1,1.6.2,1.6.2h1.8c0,.1,1.6.3,1.6.3h1.6c0,.1,36.4,2.8,36.4,2.8h1.6c0,.1,1.4.2,1.4.2,0,0,.1,0,.2,0,.7.1,1.4.5,1.9,1.1.5.6.7,1.4.6,2.3ZM398.9,179.8c1-.7-1.8,2.8-5.6,6.7h-3.2c3-2.2,5.9-4.5,8.8-6.7ZM409.6,329.2c0,4.2-3.4,7.7-7.7,7.7h-186.9c-4.2,0-7.7-3.4-7.7-7.7v-131.9c0-4.2,3.4-7.7,7.7-7.7h186.9c4.2,0,7.7,3.4,7.7,7.7v131.9ZM463.4,318.6c-1,7.2-9.4,9.8-16.9,9.8s-4.6-.3-6.4-.7c-7.7-2-14.3-8-16.7-15.2-.9-2.7-.6-5.5.7-7.8,1.2-2,3-3,5.8-3.4,1-.1,2.1-.2,3.1-.2,3.6,0,7.6.6,11.8,1.8,6.9,2,19.7,7.8,18.6,15.7ZM531.1,227.8l-1.1,16h-58.4l-1.1-16h60.6ZM508.8,327.7c-1.8.5-4.1.7-6.4.7-7.5,0-15.9-2.6-16.9-9.8-.1-1,0-2,.2-2.9h36.5c.7,0,1.5-.1,2.1-.4-3,5.9-8.8,10.6-15.5,12.3ZM525.4,309.6c-.1,1.7-1.5,3-3.2,3h-34.8c3.7-4.7,11.7-8.2,16.7-9.6,4.3-1.2,8.2-1.8,11.8-1.8s2.1,0,3.1.2c2.8.3,4.6,1.3,5.8,3.4.3.5.6,1.1.8,1.7l-.2,3.3ZM526.9,288.5v2c-.1,0-.3,2-.3,2l-.4,6c-.8-.2-1.5-.4-2-.5-2.5-.6-5.2-.9-7.9-.9-9.2,0-18.1,3.4-24,6-.8.3-1.6.7-2.4,1.1-4.1,1.8-8.3,3.7-12.8,4.3-.3,0-.6,0-1,0l-1.1-15.7-.2-2.2-.2-2.2-.3-3.7h52.7l-.3,3.9ZM529.7,281.4h-57.3c-.5,0-1-.1-1.4-.4-.8-.5-1.5-1.3-1.5-2.3l-2.5-28.6c0-.8.2-1.6.8-2.3.3-.3.6-.5.9-.7.4-.2.8-.3,1.2-.3h61.4s0,0,0,0c.6,0,1.1.2,1.5.4.2.1.4.3.6.5.6.6.8,1.4.8,2.2l-1.6,28.6c0,1.3-1,2.3-2.2,2.7-.3,0-.5.1-.8.1Z"/>
        <path d="M382.7,235.6s0,0,0,0c0-.3,0-.6-.1-.9,0-.2-.1-.4-.1-.6v-.2s0,0,0,0c0-.3-.1-.8-.4-1.1h0c-.2-.4-.3-.6-.2-.8h0c0-.1,0-.3,0-.3,0,0-.1-.2-.5-.2s0,0,0,0c-.4-.3-.9-.4-1.3-.4-.3-.2-.7-.4-1.3-.6-.4,0-.7-.2-1.1-.2v-.3s-.5.2-.5.2c-.1,0-.3-.1-.4-.2-.2-.1-.4-.3-.5-.3h0c-.2-.2-.5-.2-.7-.2-.2,0-.3,0-.4-.1h0c0,0-.1,0-.1,0-.3,0-.5,0-.7-.2h-.2c0,0,0,0,0,0-.3,0-.5,0-.6-.1h0c0-.1,0-.2,0-.2-.2-.1-.5-.2-.7-.2-.1,0-.2,0-.3,0h-.1s0,0,0,0c0,0,0,0,0,0,0,0,.1,0,.2,0,.4-.2.9-.3,1.3-.4.6-.2,1.3-.4,1.9-.7,0,0,.2,0,.3,0,.3,0,.6,0,1-.1.3,0,.6-.1.9-.1s.1,0,.1,0h0c.4-.3.8-.6,1.2-1,.5-.4.9-.8,1.4-1,.2-.1.3-.3.5-.5.2-.2.3-.4.6-.4s0,0,0,0h.1c0,0,.1,0,.1,0v-.3s0,0,0,0v.3c.2,0,.3,0,.5,0h.2s0-.1,0-.1c0,0,0,0,.1-.1.2-.2.4-.4.4-.8,0-.3-.2-.7-.4-.9-.2-.2-.4-.3-.6-.3-.4,0-.7.4-.7.4-.1.1-.3.3-.4.4-.4.2-.6.5-.9.8-.2.3-.5.5-.8.7-.2.2-.4.3-.6.5-.3.2-.5.4-.7.5-.4,0-.7.2-1.1.2-.6.1-1.3.2-1.9.5-.3,0-.7.2-1.1.2-.4,0-.7.2-1.2.3-.4.3-.9.4-1.3.6-.4.2-.9.3-1.3.6h-.1c0,0,0,.1,0,.1-.1,0-.5.3-.4.6,0,.3.3.3.4.3s.1,0,.2,0c0,0,.1,0,.2.1-.2,0-.3.3-.3.6h0c0,.1,0,.2,0,.2.2.2.5.3.8.5h.2c.4.4.9.8,1.4.9.4.2.8.4,1.3.6.4.2.8.4,1.3.6.2,0,.4,0,.5.1.5.1,1,.2,1.4.5l.6.2c.6.2,1.2.4,1.9.6,0,0,0,.2,0,.2,0,.2-.1.3,0,.5,0,0,0,.1,0,.2,0,.1-.1.3-.1.4-.4.6-.4,1.3-.5,2h0s0,.1,0,.1c0,.1,0,.3,0,.4-.2.4-.3.7-.4,1h-.2s0,.3,0,.3c0,.3,0,.6-.1.9,0,.3,0,.6-.1.9v.2s.2,0,.2,0c.2,0,.4.1.7.1s.5,0,.8-.1h.3c0-.1-.1-.4-.1-.4,0-.2,0-.3,0-.5,0-.2.1-.4.1-.6,0-.2.1-.4.1-.5,0,0,0-.2,0-.3,0-.2.2-.5.2-.8,0,.2,0,.5,0,.7h0c0,.1.1.2.1.2,0,0,0,0,0,.3,0,.2-.1.6.1.8,0,.3.2.6.4.7h.2s0,0,0,0c.3,0,.6-.2.9-.4h0c0,0,0-.2,0-.2,0-.5,0-.9-.1-1.3,0-.3-.1-.6-.2-1,0-.2,0-.4-.1-.6,0-.1,0-.2,0-.4.1.1.2.3.4.3,0,0,.2,0,.3,0,.3,0,.4-.1.5-.2h0c0,0,0-.2,0-.2,0-.3,0-.5-.2-.7,0,0,0-.2,0-.2Z"/>
        <path d="M397.6,214.2s-.1,0-.1,0c0,0,0,0,0,0l.2-.3v-.2c-.1-.2-.3-.3-.6-.3-.7.2-1.3.4-1.9.6-.4.1-.7.3-1.1.4-.1,0-.3.2-.4.2-.1.1-.3.2-.4.2h0s0,0,0,0c-.2,0-.4.2-.6.2-.4.1-.9.3-1.2.6,0,0-.1,0-.2,0,0,0-.1,0-.2,0s-.1,0-.2,0c-.2-.2-.4-.3-.5-.6-.5-.6-1-1.1-1.6-1.6-.5-.5-1.1-1.1-1.6-1.7l-.3-.3c-.8-.6-1.6-1.3-2.2-2.1l-.6-.5h-.2c0,0-.1,0-.1,0-.3,0-.5,0-.7.3h-.2s0,0-.1,0h-.2c0-.1-.2,0-.2,0,0,0-.1,0-.1,0,0,0-.1,0-.3,0h-.3s0,.2,0,.2c-.1.2,0,.4,0,.5,0,0,0,.2,0,.3l-.3.4h.3c0,1.2,0,2.1.2,2.9,0,0,0,0,0,0,0,0,0,0,0,0,0-.2-.2-.4-.3-.6-.1-.2-.2-.4-.3-.6v-.4s-.3.1-.3.1c0-.1,0-.2-.3-.4-.3-.1-.6-.2-1-.2-.4,0-.7,0-1-.2h-.2s-.4,0-.4,0c-.3,0-.5,0-.5-.2h0c0,0-.1-.1-.1-.1,0,0-.2,0-.3,0-.4,0-.6-.1-.7-.4v-.2c0,0-.2,0-.2,0-.7,0-1.4-.5-2-.9-.5-.3-.9-.6-1.5-.8h-.1c0,0,0,0,0,0-.1,0-.3-.2-.4-.2s-.3,0-.5.4c0,.4.2.8.4,1h0c0,0,.1,0,.1,0,.4,0,.6.4.9.8l.3.4h.2c0,0,.1,0,.2,0,.4,0,.5.2.6.2h0c0,0,0,.1,0,.1h.2s0,0,0,0c0,0,.2,0,.2,0-.1.3-.3.5-.6.7h-.2c0,.1.2.7.2.7,0,0,0,0,0,.1,0,0-.1,0-.2,0h0c-.2-.2-.4-.2-.6-.2s-.6.1-.8.2c-.1,0-.2,0-.2,0-.3,0-.6.1-.6.2h0c0,0-.2.1-.1.1-.2-.1-.4-.3-.6-.5,0,0,.1,0,.2,0h.3s0-.2,0-.2c.1-.2,0-.4,0-.4v-.2s0,0,0,0c0,0,0,0,0,0,.1,0,.3.2.6.2s.3,0,.3,0v-.2c0-.6-.3-1.1-.8-1.4,0-.2-.2-.3-.3-.4-.1,0-.2-.2-.2-.2v-.2s-.3,0-.3,0c0,0,0,0-.1-.1,0-.1-.2-.3-.6-.3h-.2c0,0-.2.1-.3.2h0c0,0,0,0,0-.3,0-.2,0-.4-.3-.6,0-.3-.2-.6-.3-.8-.1-.2-.2-.4-.3-.6h0c0,0,.2,0,.2,0h.2s.2,0,.2,0h0c0,0,.1,0,.1,0,.2,0,.3-.2.4-.3,0-.2,0-.4-.1-.6h0c0,0,0-.1,0-.1-.2-.2-.5-.2-.8-.3-.3-.1-.6-.2-1-.5h-.2s0,0,0,0c-.4,0-.7.4-.8.7h0c0,0,0,.2,0,.2,0,.2.2.5.2.7.2.8.5,1.5,1,2.2.1.2.2.5.2.8,0,.3.1.6.3.9,0,.6.1,1.1.5,1.6h0s0,0,0,0h0c0,0,0,0,0,0v.2c.1,0,.2.2.3.2v.2c.3.3.5.7.7,1l.3.3.2-.2c0,0,.2,0,.4,0,.3.2.7.4,1,.6h0s0,0,0,0c.4,0,.7-.3,1-.5,0,0,.1,0,.2-.1.1.1.3.2.5.2s0,0,0,0c0,0,0,0,0,.1h0c0,.1,0,.3,0,.3,0,0,0,.1,0,.2,0,.2,0,.6.4.8h.2s0,0,0,0c.3,0,.4-.2.5-.2h.1c0-.1,0-.3,0-.3,0,0,0-.1.3-.3h.1c0,0,0-.2,0-.2.2-.7.8-1,1.4-1.3.3-.1.6-.3.8-.4.2,0,.4,0,.6,0,.2,0,.4,0,.6,0s.1,0,.2,0c.1,0,.2,0,.4.3.1.2.3.5.7.6,0,.1.1.3.1.5,0,.2,0,.4.1.6v.2c0,.2,0,.3-.1.5,0,.4-.1.6-.4.7-.3.2-.6.2-1,.3h-.3c0,0,0,.2,0,.2v.3h0l-.2-.3c0,0-.2,0-.3,0-.5.4-1.1.5-1.8.6-.2,0-.5,0-.7.1,0,0-.1,0-.2,0-.1,0-.2,0-.4,0-.2,0-.3,0-.4,0s-.4,0-.5.1h0c-.2,0-.3.1-.5.2,0,0-.1,0-.1,0-.3,0-.5.2-.7.3-.2.1-.3.2-.4.2h0s-.3,0-.3,0c-.2,0-.4.1-.5.3-.1-.2-.4-.3-.8-.3s-.3,0-.3,0c0,0-.5,0-.9,0s-.2,0-.3,0c0,0-.2,0-.4,0-.5,0-.6,0-.7,0,0,0-.6,0-.9-.2,0-.1-.2-.2-.4-.3-.3,0-.5,0-.8,0s-.5,0-.8.1c0,0,0,0,0,0,0-.2-.2-.5-.5-.6-.4-.2-.9-.3-1.4-.3s-.1,0-.2,0c-.2,0-.3-.1-.5-.3-.2-.2-.4-.3-.6-.4-.1-.1-.3-.2-.3-.2s-.1,0-.2,0c-.3-.4-.5-.9-.9-1.2h0c0,0-.4,0-.4,0,0-.1-.3-.2-.4-.2,0,0,0,0-.1,0,0-.2-.3-.4-.4-.5-.2-.2-.3-.3-.4-.5h0c0-.1-.3-.3-.3-.3-.3-.2-.6-.4-1-.4s0,0-.1,0c0,0-.2-.2-.2-.3-.2-.3-.4-.6-.8-.8h-.2s0,0,0,0c-.3,0-.5-.4-.8-.7,0-.1-.2-.3-.3-.4-.2-.1-.3-.2-.5-.3-.3-.2-.6-.3-.8-.6h0c0,0,0,0,0,0-.1,0-.2-.2-.4-.3-.1-.1-.3-.3-.5-.4-.1,0-.2-.2-.3-.3-.2-.2-.4-.4-.8-.4h0c-.3-.1-.6-.4-.9-.6-.5-.4-1.1-.9-1.7-1,0,0-.2,0-.3-.1-.2,0-.5-.2-.6-.2s0,0,0,0c-.2-.1-.4-.2-.6-.3-.4-.2-.8-.4-1.1-.7l-.2-.2-.2.2c-.3.4-.3.8-.2.8h0c0,0,0,.1,0,.1.2.3.6.5.9.7.3,0,.6.2.8.4.5.2.9.5,1.5.6.2.4.6.5.9.6.3.1.5.2.6.4h0c0,0,0,.1,0,.1.2.1.4.2.5.2.4,0,.4.1.4.3h0c0,.1.1.2.1.2.2.1.4.2.5.2,0,0,0,0,0,0,0,0,0,0,0,0,.2.2.3.3.5.5,0,0,0,0,0,0-.1,0-.3,0-.4,0-.1,0-.3,0-.4,0-.4,0-.9.1-1.1.7,0,0-.2,0-.3,0-.2,0-.5,0-.6.3,0,.1,0,.3,0,.4h0c0,0-.1,0-.1,0h0c-.2.2-.4.3-.7.4-.3,0-.6.2-.8.4-.1,0-.2.2-.4.2-.4.3-.8.6-1.3.6h-.1s0,.1,0,.1c0,0-.1.1-.3.1s-.2,0-.3,0h-.2c0,0-.1.1-.1.1-.3.5-.3.8,0,1.2h.1c0,.1.3,0,.3,0,.3,0,.8-.1,1.2-.5.3-.2.6-.2.9-.3.5,0,1.1-.1,1.5-.7,0,0,.2,0,.2,0,0,.1-.2.2-.3.4-.2.3-.5.6-.6,1.1,0,.2,0,.4,0,.6,0,.5,0,.8-.3.9h-.1c0,0,0,.2,0,.2,0,.1,0,.2-.1.4-.1.2-.2.5-.2.7,0,.2.2.3.3.4h0s0,0,0,0c.6,0,.7-.6.7-.7.2-.2.3-.4.4-.6,0,.8-.2,1.7-.3,2.5v.3c.1.2.4.4.6.4s.2,0,.4-.1c0,0,.1-.1.2-.2v-.2c.3-.3.3-.6.4-.9,0-.3,0-.5.2-.8,0-.4.2-.8.3-1.2.2-.6.3-1.2.4-1.9,0-.1,0-.3,0-.4,0-.2,0-.4,0-.5,0-.2,0-.4.1-.6,0-.3,0-.4.1-.6,0,.2.2.4.3.5.2.3.4.6.5,1h0c0,.1,0,.2,0,.2,0,0,.1.2.2.4,0,.2.1.4.3.6.1.5.4.8.6.9.3.3.3.8.3,1.3,0,.5,0,1,.3,1.4,0,.1,0,.3,0,.4,0,.1,0,.3,0,.4.1.6.3,1.3.5,1.9v.3c0,0,.2,0,.2,0,0,0,0,0,0,0-.2,0-.3.1-.3.2l-.2.2v.2c0,0,0,.3.1.6h0c0,0,0,.1,0,.1.5.3,1.1.4,1.7.4s1.2,0,1.9-.3h.1s0-.1,0-.1c0,0,.4-.3.6-.5h0c0,0,0-.2,0-.2,0-.2,0-.4,0-.5.3,0,.7,0,.9-.2.2-.1.3-.1.6-.1s.2,0,.2,0h0c.2-.4.4-.6.7-.7.2-.1.5-.2.7-.4h.2s.2.1.2.1v-.3c.1,0,.3-.2.5-.4,0,0,0,0,0,0,0,.1.1.2.3.3h.1s0,0,0,0c0,0,.2,0,.3,0,0,.2-.1.4-.2.6,0,.2-.1.5-.2.7h0c0,0,0,.2,0,.2,0,.3,0,.6-.1.7h0c0,0,0,.2,0,.2,0,.4,0,.9.1,1.3.1.7.2,1.2-.2,1.6h0c0,0,0,.2,0,.2,0,.4-.2.6-.6.9-.2.2-.5.4-.7.7,0,0-.1,0-.2,0,0,0,0,0-.1,0s0,0,0,0c-.3-.2-.6-.2-.9-.3-.2,0-.4,0-.5-.1-.5-.3-.9-.5-1.4-.5h0c-.6-.3-1.1-.7-1.6-1.1-.3-.2-.6-.4-.9-.7-.4-.1-.8-.5-1.2-.8l-.3-.2c-1.1-.6-2.1-1.1-3.2-1.1s-.7,0-1,.2h-.1s0,.1,0,.1c0,.2-.2.4-.3.5-.2.3-.4.6-.5,1h0c0,.1,0,.2,0,.2.1.2.3.3.5.3s.2,0,.3,0h.3c-.2,0-.4.2-.7.3-.1.2-.3.2-.5.3-.2,0-.4.2-.5.3,0,0-.4.2-.5.5v-.3c0,0-.4.1-.4.1-.3,0-.5.1-.8.2-.6.1-1.3.2-1.7.6,0,0,0,0-.2,0s-.3,0-.3,0c-.3,0-.5.1-.6.4h-.1c0,.1-.2,0-.2,0v1.1c0,0-.1,1.4-.1,1.4h0s0,.2,0,.2c-.1.4,0,.9.1.9s0,0,0,0c0,.2.1.5.4.5h0s0,0,0,0c.2,0,.4-.2.5-.3.2-.1.3-.2.5-.2h0s0,0,0,0c.6-.3.9-.8,1.3-1.2l.2-.2c.3-.4.6-.8,1.1-1.2h0c0,0,.1-.1.1-.1v-.3c0-.3,0-.5,0-.6.1,0,.2,0,.4,0h.5c.2-.2.3-.2.4-.3.3,0,.5-.2.6-.4.2-.2.3-.3.6-.3s.2,0,.2,0h.1c.3-.4.6-.5.9-.7.3-.1.7-.3,1-.5h0s0-.1,0-.1c0,0,0,0,.1-.1.1,0,.2-.2.2-.3h0c0,0,.2.1.2.1.3,0,.5.2.7.3.7.6,1.3,1,2,1.4.2.1.4.3.6.5.5.4,1.1.9,1.7.9.2.1.4.2.6.2.2,0,.5.1.7.3,0,0,0,0-.2,0-.2,0-.4.2-.5.4h0c0,.1,0,.2,0,.2,0,.2.3.3.5.4.3.4.7.4.9.4.2,0,.3,0,.4,0,.3.2.6.3.9.3s.7-.1,1-.2c.2,0,.4-.1.5-.1h0s0,0,0,0c.8-.8,1.4-1.6,1.3-2.8v-.3c.2-.3.1-.6-.1-.9h-.1c0,0,0,0,0,0,0-.1.1-.2.1-.2l.5-.3h0c.1,0,.3,0,.4,0h.1s0-.1,0-.1c.3-.3.4-.7.4-1,0-.2,0-.3.1-.5.4-1.2,1-2.3,1.8-3,0,0,.2-.2.3-.2v.2c-.1.1-.3.3-.5.4-.3.2-.6.5-.6,1-.5.4-.6,1-.7,1.5,0,.3-.1.5-.2.8h0c0,0,0,.2,0,.2,0,0,0,0,0,.1,0,.2.1.6.5.8h0s.2,0,.3,0c.2,0,.5,0,.7-.3h.1c0-.1,0-.3,0-.3-.1-.9.2-1.7.6-2.4,0,.1,0,.2,0,.3,0,.3,0,.7-.2,1,0,.3-.3.7,0,1.1h0c0,.1.1.2.1.2.2,0,.3,0,.5,0s.2,0,.5-.1c.4-.3.4-.7.4-1,0-.2,0-.4.1-.7,0-.2.1-.4.2-.6.2-.5.3-.9.6-1.2,0,0,.1-.1.2-.2-.2.3-.2.7-.3,1.1,0,.2,0,.5-.1.7,0,.5-.2.9,0,1.5,0,.2.3.3.5.3s.2,0,.4-.1l.4-.3h0c.1-.5.2-1,.3-1.4.1-.8.2-1.5.7-2.1.1-.4.3-.7.6-1,0-.1.2-.3.2-.3,0,0,.1,0,.2,0,0,0,0,0,0,0-.1.2-.2.5-.3.7,0,.2-.1.4-.2.5,0,0-.1.1-.2.2v.2c-.6.8-1.1,2-.5,3.3.1.1.3.2.5.2s.3,0,.6-.2h.1s0-.1,0-.1c.3-.4.2-.9.1-1.3,0-.2,0-.4,0-.6.3-.3.5-.7.6-1.2v-.3c.2-.6.3-1.1.6-1.4l1-.8c-.3.5-.5,1-.6,1.6,0,.2-.1.4-.2.5,0,.1,0,.2-.1.3,0,0,0,.2-.1.4l-.3,1.3h.2c0,.2,0,.4.1.6,0,.2.1.3.5.5h0c0,0,.1,0,.1,0,.6-.1.7-.7.8-1.1,0-.1,0-.3.1-.5,0-.3,0-.5.2-.7,0-.2,0-.3.1-.5,0-.3.2-.6.2-1.1,0-.3.1-.7.4-1v-.2c.3-.2.4-.3.7-.4.2,0,.3-.2.4-.3.1,0,.3,0,.5,0,.3,0,.8,0,1.1-.4.5-.3.9-.8,1-1.4,0,.3,0,.5.1.8,0,0,0,.1-.2.3-.2.1-.6.4-.4.8,0,.3,0,.4-.3.6,0,0-.1.1-.2.2l-.2.3.3.2c0,0,.3.2.3.2,0,0,0,0,0,0,0,.2.3.6.8.6s.2,0,.3,0c.3,0,.8-.3.7-.9,0-.4.1-.7.3-.9h.1c0-.1,0-.3,0-.3,0,0,0-.2,0-.3,0-.2,0-.4,0-.6,0-.5,0-.9-.2-1.3,0-.2-.1-.4-.2-.6,0-.2,0-.5,0-.6,0-.2,0-.4,0-.6-.3-1.2-.4-2.2-.5-3.2,0,0,0,0,0,0,0,.1.2.2.3.3.1.3.3.5.5.7.2.1.3.3.4.5.8.9,1.6,1.7,2.2,2.7l.4.4c.7.7,1.5,1.5,2.1,2.4.2.2.5.2.7.2.2,0,.2,0,.3,0h.2c0,.1.2,0,.2,0,.1,0,.3,0,.5-.1.4,0,1-.2,1-.8.1,0,.3.1.5.1.3,0,.6,0,.8-.2.1,0,.3,0,.3,0,.9,0,1.8-.2,2.6-.3.2,0,.3,0,.4-.2,0,0,.1-.3,0-.6,0,0,0,0,0-.1,0,0,0,0,.1,0,.2,0,.5,0,.6-.5,0,0,.2,0,.3-.1.2,0,.5-.2.6-.4,0-.2,0-.3-.2-.5h0ZM362,219.5c-.3.3-.6.5-1,.7-.2.1-.5.3-.6.4-.6.2-1.2.3-1.8.4h0s0,0,0,0c-.2.2-.7.4-1.2.4s-.2,0-.3,0c0,0,0,0-.1-.1-.3-.3-.4-.5-.3-.8-.2-1.5-.7-2.9-1.1-3.9-.2-.7-.5-1.4-.8-2l-.2-.5-.5-1c0,0-.2-.1-.3-.2.2,0,.3-.3.3-.4h0c0,0,0-.2,0-.2,0-.2,0-.4-.1-.7,0,0,.2,0,.3,0,.3.4.7.7,1.1.9.4.2.7.5,1,.8h0c0,.1.1.1.1.1.2,0,.4.2.6.4.2.2.3.4.6.5.1,0,.2,0,.3,0,.3,0,.4,0,.5.2.1.2.2.4.3.6.2.4.4.8.7,1.1.3.2.7.3,1,.4.5.1.9.2,1,.6-.3.2-.4.5-.2.7.1.3.4.4.5.4s0,0,.1,0c0,0,0,0,0,.2,0,.4,0,.5,0,.7ZM365.4,225.1v-.3c0,0,0,.3,0,.3,0,0,0,0,0,0h-.1ZM368,220c-.2,0-.4.1-.6.3-.2.4-.5.6-.8.9-.3.2-.3.5-.3.6,0,0,0,.2,0,.3,0,.2-.2.4-.3.7-.2.5-.5,1-.5,1.7,0-.4,0-.8-.2-1.1,0-.5.1-1,.2-1.5v-.3s0,0,0,0c-.1-.3,0-.6.2-1,.2-.2.2-.3.3-.3h.1c.4,0,.8-.2,1.1-.3,0,0,.2,0,.3,0s.4,0,.4,0c0,0,.1,0,.4,0,0,0,0,.1-.3.2ZM369.7,220.4h0c-.1,0-.2.2-.2.2h-.2c.1-.1.3-.2.4-.3,0,0,0,0,0,.1ZM382.1,215.9c-.1-.1-.1-.2,0-.4,0,0,0-.1,0-.2,0,0,0,.5.1.6h0Z"/>
        <path d="M282.3,301c0,.2.2.4.2.6,0,0,.2.3.2.1,0-.2,0-.5,0-.8,0,.5-.2.3-.4,0Z"/>
        <path d="M359,297.3l-134-13.5c-2.3-.2-4.4,1.5-4.7,3.8l-2.3,22.7c-.2,2.3,1.5,4.4,3.8,4.7l134,13.5c2.3.2,4.4-1.5,4.7-3.8l2.3-22.7c.2-2.3-1.5-4.4-3.8-4.7ZM233.7,309.9l-2.8-.8c2.8,0,4.4-1,4.6-3.5,0-1.6-.5-2.9-1.8-3.7-.6-.3-1.3-.6-2.1-.7.8-.1,1.5-.4,2-.8.7-.6,1.1-1.4,1.2-2.7.1-2.4-1.1-4.1-4.2-4.4-.9,0-1.3,0-1.4.7,0,1-1.1,11.8-1.1,11.8,0,.8-.2,1.7,0,2.1,0,.3.2.5.2.6,0,0-.2,0-.2,0q-.6,0-1.3-.1c-.8,0-1,0-1.6-.2,0,0-.1,0-.2,0,0,0,.1,0,.3-.4.2-.5.4-1.4.5-2.1.1-1.1.7-8.5.9-10,0-.8.3-3,0-3.5,0,0-.3-.1-.2-.2,0,0,.1,0,.1,0,.7,0,.8.2,1.7.3.6,0,1.7.2,2.3.2,4.1.2,6.7,1.5,6.5,5.5,0,1.5-.8,2.5-1.7,3.2,1.6.8,2.5,2.2,2.4,4.6-.2,2.7-2.3,3.8-4.1,4.3ZM251.6,310.8c-.8,0-1.1,0-1.1-.1.2-.4.2-.8,0-1.4,0-.1-.3-.9-.4-1.2-1-3-3.1-9.8-3.1-9.8-.2-.4,0-.4-.3,0,0,0-3.3,6.2-4.9,9-.1.3-.5,1-.6,1.1-.2.5-.4,1-.2,1.4,0,0-.3,0-.9,0-.8,0-2.2-.2-2.2-.2l.4-.4c.2-.2.9-1.1,1.5-2.2,2.2-4,7.2-13,7.2-13,.2-.5.4-.4.7,0,0,0,3.1,9.9,4.6,14.2.4,1.2.8,2.3,1,2.5.3.5.4.5.4.5,0,0-1.5-.1-2.2-.2ZM265.5,312.4c-1.4-.1-2.1-1-2.5-1.7-.2-.5-3.8-6.7-3.8-6.7,2.8,0,4.4-1,4.6-3.5.1-2.4-1.1-4.1-4.2-4.4-.9,0-1.3,0-1.4.7,0,1-1.1,11.8-1.1,11.8,0,.8-.2,1.7,0,2.1,0,.3.2.5.2.6,0,0-.2,0-.2,0q-.6,0-1.3-.1c-.8,0-1,0-1.6-.2,0,0-.1,0-.2,0,0,0,.1,0,.3-.4.2-.5.4-1.4.5-2.1.1-1.1.7-8.5.9-10,0-.8.3-3,0-3.5,0,0-.3-.1-.2-.2,0,0,.1,0,.1,0,.7,0,.8.2,1.7.3.6,0,1.7.2,2.3.2,4.1.2,6.7,1.5,6.5,5.5-.2,2.7-2.3,3.8-4.1,4.3,0,0,3.6,6.3,4.3,7.1.3.4.4.5.4.5,0,0-.6,0-1.2-.1ZM282.5,301.9l-.3-1.2c-.9-1.5-3.3-2.7-4.8-2.8-4.2-.4-7.3,2-7.7,6.4-.2,3.6,2.1,7.3,6.1,7.7,2.2.2,4.6-.1,6.2-1.8l.3.3s-.3.6-.6,1.5c-.3.6-.7,1.4-.7,1.4-1.5.2-3.6.3-5.1.2-5.6-.5-8.9-4.4-8.4-9.4.6-5.4,4.6-8.2,10.1-7.5,2.2.2,4,1,4.5,1.2,0,0,.5,0,.6,0,0,0-.2.7-.1,1.5,0,.6,0,1.1.1,1.7,0,0,0,0,0-.2,0-2,.2,1.1.2,1.1h-.4ZM283.9,301.1l.5-5.1,3.1.3-3.6,4.8ZM298.1,300.7l-2.3-.2c0,.8-.9,8.8-1.1,11.8,0,.8-.2,1.7,0,2,0,.4.2.5.2.6,0,0-.1,0-.1,0-.6,0-.7-.2-1.4-.2-.8,0-.9,0-1.5,0,0,0-.2,0-.2-.1l.3-.4c.2-.5.3-1.3.4-2,.3-2.9,1-10.5,1.1-11.8l-2.8-.3c-.8,0-2.2,0-2.6,0-.3,0-.5.3-.6.2,0,0,0,0,0,0,0-.6.3-1.7.3-2.3,2,.2,11.4,1.1,13.4,1.3,0,.7-.2,1.7-.2,2.3,0,0,0,0-.1,0-.1,0-.2-.2-.5-.3-.3-.1-1.6-.3-2.3-.4ZM312.4,300.6c0,.8-.1,1.1-.2,1.7,0,0,0,.1,0,0-.1,0-.3-.2-.5-.3-.4-.1-1.2-.3-1.9-.4l-4.9-.6-.5,5.3,3.7.4c.8,0,2.2.3,2.6.3.3,0,.5-.3.6-.2,0,0,0,.1,0,.1,0,.6,0,.4-.1,1.1,0,.8,0,.5,0,1v.2c-.1,0-.1-.1-.5-.3-.5-.1-2.1-.3-2.8-.4l-3.7-.4-.6,5.7,5.2.5c.8,0,1.6,0,2,0,.3-.2.6-.4.7-.3,0,0,0,0,0,0,0,.6-.2,1.1-.4,1.9v.5c-1,0-1.4-.1-2.9-.3l-5.9-.6c-.8,0-.9,0-1.4,0,0,0,0,0-.2-.1,0,0,0,0,.3-.4.3-.4.4-1.3.5-2,.1-1.4.4-3.7.6-5.9.2-2.3.4-3.9.5-5.3,0-.8.2-1.6,0-2.1-.1-.5-.2-.4-.2-.5.1,0,.2,0,.2,0,.6,0,.6.2,1.4.2l5.3.5c1.5.1,2.3.2,3.1.3v.5ZM325.6,318.2c-1.3-.1-2.1-1-2.4-1.7-.3-.5-3.8-6.7-3.8-6.7,2.7,0,4.3-1,4.5-3.5.2-2.3-1-4.1-4.2-4.4-.9,0-1.3,0-1.4.7,0,1-1.1,11.8-1.1,11.8,0,.8,0,1.7,0,2.1.2.3.3.5.3.6-.1,0-.2,0-.2,0-.6,0-.7,0-1.4-.1-.8,0-.9,0-1.6-.2,0,0-.1,0,0,0q0,0,.3-.4c.2-.5.3-1.4.4-2.1.1-1.1.8-8.5,1-10,0-.8.3-3,0-3.5,0,0-.2-.1-.2-.2.1,0,.2,0,.2,0,.6,0,.8.2,1.6.2.7,0,1.8.2,2.3.2,4.1.2,6.8,1.5,6.5,5.5-.2,2.7-2.3,3.8-4.1,4.3,0,0,3.6,6.3,4.3,7.1.4.4.5.5.5.5,0,0-.6,0-1.3-.1ZM352.7,304.6c-.5.3-6,6.9-6,6.9,0,0,4.3,8,4.8,8.4.4.5.5.5.5.5,0,0-1.4-.2-2.1-.3-.8,0-1.8,0-1.8,0,.2-.4.2-.8,0-1.3-.2-.6-2.6-5.2-2.8-5.4-.2.2-3.4,4.2-3.8,4.7-.3.4-.5.9-.3,1.3,0,0-.8-.2-1.6-.2-.7,0-2.2-.1-2.2-.1,0,0,.2,0,.7-.4.5-.3,6.2-7.2,6.2-7.2,0,0-3.3-6.3-4.4-7.9-1.2,1.2-5.8,7.1-5.8,7.1l-.5,5.4c0,.7,0,1.6,0,2,0,.3.3.5.2.6,0,0,0,0,0,0-.6,0-.8,0-1.5-.1-.8,0-.9,0-1.5-.1,0,0-.2,0-.2,0,0,0,.1,0,.3-.4.2-.5.5-2.2.6-3l.4-4.5s-4.3-8-4.8-8.4c-.4-.5-.6-.5-.6-.5,0,0,1.5.2,2.1.3.8,0,1.8,0,1.7,0-.1.4-.2.8.2,1.3.2.6,2.7,5.2,2.9,5.4.2-.2,3.4-4.3,3.8-4.7.3-.5.5-.9.3-1.3,0,0,.8,0,1.5.1,0,0,.2,0,.3,0,0,0,0,0,0,0,0,0-.1,0,.4.4,0,0,.2.2.3.4.1-.1.2-.2.3-.2.6,0,.8-.4.8-.4,0,0,.1,0,.2,0,.8,0,1.8,0,1.7.2-.1.4-.2.8.2,1.3.2.5,2.5,5,2.7,5.2.2-.2,3.3-4,3.7-4.5.4-.5.5-1,.4-1.4,0,0,.9,0,1.7.2.7,0,2,.2,2,.2,0,0-.4.2-.8.5Z"/>
        <path d="M282.1,300.7h0s0,0,0,0c0,0,0,0,0,0Z"/>
        <path d="M302.1,273.2c1.5,0,3-.2,4.3-.7.4-.2.9-.2,1.3-.2.5,0,.9.1,1.3.3,1.4.6,2.8.9,4.3,1,8.5.2,15-13.9,15.3-23.6.3-10.2-6-18.3-14.2-18.6-.7,0-1.5,0-2.2.2l-1.8.3.9-1.6c1.3-2.3,3.8-3.7,6.5-3.7.2,0,.4,0,.6,0,.8,0,1.5-.6,1.5-1.4,0-.8-.6-1.5-1.5-1.5-.2,0-.4,0-.6,0-4.7-.1-8.8,3-10,7.5l-.2.9-.9-.3c-1.1-.4-2.3-.6-3.5-.7-8.2-.2-14.8,7.6-15.1,17.8-.3,9.7,5.5,24.1,14,24.4ZM291.1,248.9c.2-9.5,6.3-15.1,12-14.9,1.7,0,3.4.6,4.9,1.6.2.2.5.2.8.3.3,0,.6,0,.8-.2,1.6-.9,3.2-1.4,5-1.3,5.7.1,11.4,6,11.2,15.5-.3,10-6.7,20.9-12.2,20.7-1.4,0-2.3-.4-3.1-.7-.7-.3-1.4-.5-2.5-.6-1.1,0-1.7.2-2.5.4-.8.3-1.7.6-3.2.5-5.6-.1-11.4-11.3-11.1-21.3Z"/>
        <path d="M502.7,102.1c-2.6-8.2-4.1-28-3.7-25.7,1.9,9,4.9,17.8,7.6,26.6.3-.7.5-1.5.8-2.2-.5-11.6.9-25-.7-33-1.8-8.7-1.8-12.8-6.2-20.5-5.5-9.4-16.1-4.9-19.6,4.5-6.8,18.2,8.2,38,21.8,50.4Z"/>
        <path d="M45.8,144c-5.3-3.9-15.1-15.5-13.8-14.3,5.2,4.8,11,8.8,16.6,13-.2-.6-.3-1.1-.5-1.7-5.5-6.9-10.7-15.9-15.2-20.1-5-4.6-6.9-7.1-13-9.9-7.6-3.4-12.1,4.1-10.1,11.5,3.9,14.3,22.1,19.9,36,21.4Z"/>
        <path d="M144.8,115.8c.3.7.5,1.5.8,2.2,2.8-8.8,5.8-17.5,7.6-26.6.5-2.2-1,17.6-3.7,25.7,13.6-12.3,28.6-32.2,21.8-50.4-3.5-9.4-14.1-13.9-19.6-4.5-4.5,7.7-4.5,11.8-6.2,20.5-1.6,8-.2,21.4-.7,33Z"/>
        <path d="M365.8,127.9c.3.7.5,1.5.8,2.2,2.8-8.8,5.8-17.5,7.6-26.6.5-2.2-1,17.6-3.7,25.7,13.6-12.3,28.6-32.2,21.8-50.4-3.5-9.4-14.1-13.9-19.6-4.5-4.5,7.7-4.5,11.8-6.2,20.5-1.6,8-.2,21.4-.7,33Z"/>
      </g>
    </g>
  </g>
</svg>