<?xml version="1.0" encoding="UTF-8"?>
<svg xmlns="http://www.w3.org/2000/svg" width="50" height="50" version="1.1" viewBox="0 0 50 50">
  <defs>
    <style>
      .cls-1 {
        display: none;
      }
    </style>
  </defs>
  <!-- Generator: Adobe Illustrator 28.7.1, SVG Export Plug-In . SVG Version: 1.2.0 Build 142)  -->
  <g>
    <g id="Layer_1">
      <path class="cls-1" d="M37.1,17.1h-.3v-1.2c0-3.4-7.1-6.2-15.9-6.2s-15.9,2.8-15.9,6.2v8.6c0,1.5.2,3,.6,4.4,1.9,6.6,8,11.5,15.3,11.5h0c.5,0,.9,0,1.4,0-.6-1.2-1-2.7-1.2-4.6,0,0-.1,0-.2,0-3.8,0-7.4-1.5-9.3-3.8-.3-.3-.2-.8.1-1.1s.8-.2,1.1.1c1.7,2,4.8,3.3,8.2,3.3s.1,0,.2,0c0-1.5.2-2.9.3-3.7h-2.1c-.5,0-1-.2-1.4-.6-.4-.4-.5-.9-.5-1.5.2-2.2,1.5-4.9,2.6-7.1.2,0,.5,0,.7,0,.3,0,.7,0,1,0-1.2,2.2-2.6,5-2.9,7.3,0,.1,0,.3,0,.3,0,0,.1.1.3.1h3.9l-.2.9s-.4,1.9-.4,4.2c2.7-.3,5.1-1.5,6.5-3.2.3-.3.7-.4,1.1-.1.3.3.4.7.1,1.1-1.6,2-4.5,3.3-7.6,3.7.1,2,.5,3.5,1.3,4.5,4.4-.8,8.2-3.5,10.5-7.2h2.7c4.4,0,7.9-3.5,7.9-7.9h0c0-4.4-3.5-7.9-7.9-7.9ZM15.1,25.8c0,.4-.3.8-.8.8s-.8-.3-.8-.8v-1.9c0-.4.3-.8.8-.8s.8.3.8.8v1.9ZM8.3,15.2c0-2.2,5.6-3.9,12.5-3.9s12.5,1.7,12.5,3.9-5.6,3.9-12.5,3.9-12.5-1.7-12.5-3.9ZM28.1,25.8c0,.4-.3.8-.8.8s-.8-.3-.8-.8v-1.9c0-.4.3-.8.8-.8s.8.3.8.8v1.9ZM37.1,30.2h-1.4c.2-.4.3-.9.4-1.3.4-1.4.6-2.9.6-4.4v-4.7h.3c2.9,0,5.2,2.3,5.2,5.2s-2.3,5.2-5.2,5.2Z"/>
      <path d="M41.8,6.8H8.2c-1.8,0-3.2,1.5-3.2,3.2v29.8c0,1.8,1.5,3.2,3.2,3.2h19.1c-1.2-1.7-1.9-4-2.1-7-.1,0-.2,0-.3,0-5.1,0-9.8-1.9-12.4-5.1-.4-.4-.3-1.1.1-1.4.4-.4,1.1-.3,1.4.1,2.2,2.7,6.4,4.3,10.9,4.3s.2,0,.2,0c0-2,.2-3.8.4-5h-2.8c-.7,0-1.4-.3-1.9-.8-.5-.5-.7-1.2-.6-1.9.5-4.5,4-10.6,5.8-13.2h2.4c-1,1.4-5.6,8.6-6.2,13.5,0,.2,0,.3.1.4,0,0,.2.2.4.2h5.2l-.3,1.2s-.5,2.6-.6,5.6c3.6-.5,6.8-2,8.6-4.2.4-.4,1-.5,1.4-.1.4.4.5,1,.1,1.4-2.2,2.6-5.9,4.4-10.1,4.9.2,3.5,1.2,5.9,2.8,7.2h11.7c1.8,0,3.2-1.5,3.2-3.2V10.1c0-1.8-1.5-3.2-3.2-3.2ZM19.9,19.6l-3.5,4.4c0,.1-.3,0-.2-.2l1.3-3c0,0,0-.2-.1-.2h-2.6c-.1,0-.2-.2,0-.3l3.3-4c0-.1.3,0,.2.2l-.9,2.7c0,0,0,.2.1.2h2.6c.1,0,.2.1,0,.2ZM35.4,19.6l-3.5,4.4c0,.1-.3,0-.2-.2l1.3-3c0,0,0-.2-.1-.2h-2.6c-.1,0-.2-.2,0-.3l3.3-4c0-.1.3,0,.2.2l-.9,2.7c0,0,0,.2.1.2h2.6c.1,0,.2.1,0,.2Z"/>
    </g>
  </g>
</svg>