<?xml version="1.0" encoding="UTF-8"?>
<svg xmlns="http://www.w3.org/2000/svg" width="50" height="50" version="1.1" viewBox="0 0 50 50">
  <!-- Generator: Adobe Illustrator 28.7.1, SVG Export Plug-In . SVG Version: 1.2.0 Build 142)  -->
  <g>
    <g id="Layer_1">
      <path d="M37.1,17.1h-.3v-1.2c0-3.4-7.1-6.2-15.9-6.2s-15.9,2.8-15.9,6.2v8.6c0,1.5.2,3,.6,4.4,1.9,6.6,8,11.5,15.3,11.5h0c.5,0,.9,0,1.4,0-.6-1.2-1-2.7-1.2-4.6,0,0-.1,0-.2,0-3.8,0-7.4-1.5-9.3-3.8-.3-.3-.2-.8.1-1.1s.8-.2,1.1.1c1.7,2,4.8,3.3,8.2,3.3s.1,0,.2,0c0-1.5.2-2.9.3-3.7h-2.1c-.5,0-1-.2-1.4-.6-.4-.4-.5-.9-.5-1.5.2-2.2,1.5-4.9,2.6-7.1.2,0,.5,0,.7,0,.3,0,.7,0,1,0-1.2,2.2-2.6,5-2.9,7.3,0,.1,0,.3,0,.3,0,0,.1.1.3.1h3.9l-.2.9s-.4,1.9-.4,4.2c2.7-.3,5.1-1.5,6.5-3.2.3-.3.7-.4,1.1-.1.3.3.4.7.1,1.1-1.6,2-4.5,3.3-7.6,3.7.1,2,.5,3.5,1.3,4.5,4.4-.8,8.2-3.5,10.5-7.2h2.7c4.4,0,7.9-3.5,7.9-7.9h0c0-4.4-3.5-7.9-7.9-7.9ZM15.1,25.8c0,.4-.3.8-.8.8s-.8-.3-.8-.8v-1.9c0-.4.3-.8.8-.8s.8.3.8.8v1.9ZM8.3,15.2c0-2.2,5.6-3.9,12.5-3.9s12.5,1.7,12.5,3.9-5.6,3.9-12.5,3.9-12.5-1.7-12.5-3.9ZM28.1,25.8c0,.4-.3.8-.8.8s-.8-.3-.8-.8v-1.9c0-.4.3-.8.8-.8s.8.3.8.8v1.9ZM37.1,30.2h-1.4c.2-.4.3-.9.4-1.3.4-1.4.6-2.9.6-4.4v-4.7h.3c2.9,0,5.2,2.3,5.2,5.2s-2.3,5.2-5.2,5.2Z"/>
    </g>
  </g>
</svg>