<?xml version="1.0" encoding="UTF-8"?>
<svg xmlns="http://www.w3.org/2000/svg" width="600" height="400" version="1.1" viewBox="0 0 600 400">
  <!-- Generator: Adobe Illustrator 28.7.1, SVG Export Plug-In . SVG Version: 1.2.0 Build 142)  -->
  <g>
    <g id="Layer_1">
      <g>
        <path d="M519.5,352.6l.3-3.7c2.7-.3,4.9-2.5,5.1-5.2l1.5-26.3c0-1.5-.5-3.1-1.5-4.2-.7-.7-1.5-1.2-2.4-1.5l1-15h.3c1.6,0,3-1.3,3-3v-6.2c0-1.6-1.3-3-3-3h-1.8c-1-.9-2.4-1.4-3.8-1.4h-3.3c0-.3.1-.5.1-.8v-6c0-1.6-1.3-3-3-3h-26.5l-10.5-136.3v-.4c-2.1-5.3-7.3-8.7-12.9-8.3l-99.6,18.3c2.1-3.7,4-7.6,5.5-11.5,15.6-3.4,20.4-26.4,11.4-38.2-1-1.4-2.3-2.6-3.8-3.6-.4-.3-.5-.3-.9-.4,0-.4,0-.7,0-1.1.7-1.6.9-3.3.7-5-4.5-31-11.6-68.7-55.7-70.6-2.6-.2-5.3-.2-7.9,0-53.7,2.6-56.4,54-55.9,69.6,0,1.9.4,3.8,1,5.7,0,.5,0,.9,0,1.4-14.9,9.2-10.4,38.6,6.9,42.3,3.5,9,8.8,17.9,15.5,25.3-12.3,4.4-23.7,10.6-34.4,18.1-36.1,25-54.3,63.6-49.1,107.4,0,0,1.3,0,1.3,0h2c0,10.7.2,21.4.6,32.1.6,11.2,1.1,22.4,3.5,33.4,0,.2,0,.4.1.5h-16.7c0,0,1.2-21.8,1.2-21.8,0-1.5-.5-3.1-1.5-4.2-.7-.7-1.5-1.2-2.4-1.5l1-15h.3c1.6,0,3-1.3,3-3v-6.2c0-1.6-1.3-3-3-3h-1.8c-1-.9-2.4-1.4-3.8-1.4h-3.3c0-.3.1-.5.1-.8v-6c0-1.6-1.3-3-3-3h-25.2v-4.3c0-1.6-1.3-3-3-3h-1.8c-1-.9-2.4-1.4-3.8-1.4h-3.3c0-.3.1-.5.1-.8v-6c0-1.6-1.3-3-3-3h-38.7c-1.6,0-3,1.3-3,3v3.2c0,1.6,1.2,2.8,2.8,3l9,.6h-14.9c-1.4,0-2.7.5-3.8,1.4h-1.8c-1.6,0-3,1.3-3,3v6.2c0,1.6,1.3,3,3,3h.3l1,14.9c-1.1.3-2,.8-2.8,1.6-1.1,1.2-1.6,2.7-1.4,4.3l2.3,26.3c.2,2.5,2.1,4.5,4.5,5l.7,9.4-87.7.3v2.9l88,.3.7,10.5c.2,3,2.8,5.4,5.8,5.4h33.1l.9,13.1c.2,3,2.8,5.4,5.8,5.4h39.4c3,0,5.6-2.4,5.8-5.4l1.6-23.3c2.7-.3,4.9-2.4,5.1-5.2h18.4c.5,1.1,1.1,2.2,2,3.1,3.8,3.4,8.4,5.4,13.2,6.7v23.5c0,5.5,4.5,10,10,10h171.9c5.5,0,10-4.5,10-10v-23.5c4.8-1.4,9.3-3.3,13.2-6.7,1-1,1.5-2,2-3l39.3-.2,1.1,15.7c.2,3,2.8,5.4,5.8,5.4h39.4c3,0,5.6-2.4,5.8-5.4l1.1-16,80.7-.4v-2.9l-80.4-.4ZM143.6,309.7h38.3l-1,14.7h-53.7l-1-14.7h17.5ZM131.7,291.2v1.3c0,1.6,1.2,2.8,2.8,3l7.3.5h0c0,.1-13.2.1-13.2.1-1.4,0-2.7.5-3.8,1.4h-1.8c-1.6,0-3,1.3-3,3v5.4h-32.7l-1-14.7h45.4ZM88.2,340.6h-.2c-.5,0-.9-.1-1.3-.3-.8-.4-1.3-1.2-1.4-2.1l-2.3-26.3c0-.8.2-1.5.7-2.1.3-.3.5-.5.9-.6.4-.2.7-.2,1.1-.2h35.1c.5.5,1.3.9,2.1.9h.3l1,14.9c-1.1.3-2,.8-2.8,1.6-1.1,1.2-1.6,2.7-1.4,4.3l.9,10.1h-32.7ZM94.4,369.2c-1.5,0-2.8-1.2-2.9-2.7l-.7-10.3v-1.7c-.1,0-.2-1.7-.2-1.7l-.6-9.2h31.3l.8,9.1.2,1.9.2,1.9v.4c.3,2.5,2.1,4.5,4.6,5l.5,7.4h-32.9ZM176.6,385c-.1,1.5-1.4,2.7-2.9,2.7h-39.4c-1.5,0-2.8-1.2-2.9-2.7l-.9-12.9v-1.4c-.1,0-.2-1.4-.2-1.4l-.5-7.3h48.5l-1.6,23ZM183.5,352.2v2.2c-.1,0-.2,2-.2,2,0,0,0,.1,0,.2-.1,1.1-.9,2-2,2.2-.2,0-.5.1-.7.1h-52.7c-.5,0-.9-.1-1.3-.3-.8-.4-1.3-1.2-1.4-2.1v-.2s-.2-1.9-.2-1.9l-.2-1.9-.8-9.1v-1.4c-.1,0-.3-1.4-.3-1.4l-.9-10.3c0-.8.2-1.5.7-2.1.3-.3.5-.5.9-.6.4-.2.7-.2,1.1-.2h56.5s0,0,0,0c.5,0,1,.1,1.4.4.2.1.4.3.6.4.5.5.8,1.3.7,2l-1.3,22ZM520.5,296.8l-1,14.7h-53.7l-1-14.7h55.8ZM462.3,131.3c4.3-.2,8.2,2.3,9.8,6.3l10.5,135.9h-3.3l-10.3-134v-.4c-1.1-2.5-3.5-4.2-6.3-4.2s-.3,0-.5,0l-103.6,17.9-4,.7-26.7,4.6c.2-.6.3-1.3.4-2l28.2-5.2,3.8-.7,101.9-18.7ZM342.9,107.4c3.9-1.1,7.6-1.7,10.9-1.7s2,0,2.9.2c2.6.3,4.2,1.2,5.4,3.1,1.3,2.1,1.5,4.7.7,7.1-2.2,6.7-8.3,12.2-15.4,14-1.7.4-3.8.7-5.9.7-6.9,0-14.6-2.4-15.6-9-1-7.2,10.7-12.6,17.1-14.4ZM327.7,64.7c1.9-1.4,4.6-.8,5.9,1.2l22.2,36c-.5,0-1.1,0-1.6,0-3.3,0-6.5.5-9.5,1.2-.6-.3-1.2-.5-1.5-.6-4.1-1.3-8.8-.9-12.5,1.4-.7.4-.4,1.5.4,1.5,1.5.2,3.4.3,5.1.3-1.5.6-2.9,1.2-4.1,1.7-.7.3-1.5.6-2.2,1-3.8,1.7-7.6,3.4-11.7,3.9-.3,0-.6,0-1,0h0s-1.4,0-1.4,0h-1.5s0,0,0,0c-.3,0-.7,0-1,0-4.1-.5-8-2.2-11.7-3.9-.7-.3-1.5-.7-2.2-1-1.2-.5-2.5-1.1-4-1.6,2.2,0,4.5-.2,6.7-.4.8,0,1.1-1.1.4-1.5-2.5-1.6-5.4-2.1-8.3-2.1-2.2,0-4.4.5-6.3,1.6-3.4-.9-7-1.5-10.6-1.5s-1.1,0-1.7,0l52.2-37.2ZM269.3,109c1.1-1.9,2.7-2.8,5.4-3.1.9-.1,1.9-.2,2.9-.2,3.3,0,6.9.6,10.9,1.7,6.4,1.8,18.1,7.2,17.1,14.4-1,6.6-8.7,9-15.6,9s-4.2-.2-5.9-.7c-7.1-1.8-13.2-7.3-15.4-14-.8-2.5-.6-5.1.7-7.1ZM265.9,133.5l-.3-.8s-.9-.2-.9-.2c-12-2.1-16.5-18.2-13-28.6,1.2-3.5,3.4-6.7,6.4-8.5l3.1,7.1c.5,1.2,1.3,2.1,2.3,2.7-1.6,1.1-2.9,2.8-2.8,5.1.2,4.5,3.6,9.3,6.2,12.5,5.6,7,13.2,11.2,21.4,11.9.8,0,1.7.1,2.5.1,3.4,0,6.5-.6,9.5-1.8,5-2,7.5-4.9,10-9.2.9-1.5,2.4-3.3,4.7-3.6h.3c.1,0,.3,0,.4,0,.1,0,.3,0,.4,0h.3c2.3.3,3.8,2.1,4.7,3.6,2.5,4.3,5,7.1,10,9.2,2.9,1.2,6.1,1.8,9.5,1.8s1.7,0,2.5-.1c8.3-.7,15.9-4.9,21.4-11.9.9-1.2,2-2.6,3-4.1-.5,1.3-1.1,2.5-1.8,3.5-.6.8-.4,1.9.4,2.4,4.4,2,5.3-13.2,5-15.7,0-.5-.4-.7-.7-.8-.8-2.1-2.9-3.5-4.9-4.3l7.2-9c13.5,7.9,9.7,34.9-6,37.7h-.9c0,.1-.3.9-.3.9-1.7,4.8-4,9.5-6.8,13.9l-32.8,6c-1.3-.8-2.2-1.3-3.1-1.7-4.5-1.8-7.4.9-10.5,4.7-.4.4-.5,1-.3,1.6,1.1,2.5,2.5,3.8,4.1,4.6,3.4,1.8,7.3,1.1,9.8-1.4l25.9-4.5c-13.1,15.1-32.3,23.8-52.9,14.9-16-7-27-22.2-33.2-38.2ZM341.9,169.6c-3,11-15.2,17.4-26.2,17.2-11,.2-23.2-6.1-26.2-17.2,7.6,5.2,16.5,8.4,26.2,8.4,9.8,0,18.6-3.2,26.2-8.5ZM281.4,163c1.9,1.8,3.9,3.5,5.9,5.1,1.1,13.4,15.5,22.1,28.3,21.9,12.7.2,27.2-8.3,28.3-21.9,2.3-1.7,4.5-3.7,6.6-5.7.9.3,1.8.7,2.7,1-1.4,8.9-6,17.3-12.8,23.2-22.2,19.3-58,6.6-61.8-22.6.9-.3,1.8-.7,2.7-1ZM219.8,364.2c-4.2-1.3-8.2-3.1-11.5-6.2-.7-.6-1.2-1.9-1.7-3.1-3.4-11.9-3.4-24.6-4-36.9-.3-10.6-.4-21.3-.2-31.9h17.4v78.1ZM408.7,283.7v106.4c0,3.9-3.2,7.1-7.1,7.1h-171.9c-3.9,0-7.1-3.2-7.1-7.1v-121.3c0-3.9,3.2-7.1,7.1-7.1h171.9c3.9,0,7.1,3.2,7.1,7.1v14.9ZM338.8,224.3c4,.3,20.1,1.7,20.1,1.7,0,0,.3,0,.4,0,0,0,11.1-.9,14.9-1.2.2,9.7.7,24.4.4,33.5,0,.2,0,.4-.2.6h-34.8c-.5-4.5-.3-12.2-.4-16.7,0-5.9-.1-11.8-.3-17.7ZM401.7,258.8h-11.3c-.8-5.2-1.7-10.4-2.7-15.6l-1.6.2c.5,5.1.9,10.3,1.2,15.4h-11.1c0-.1,0-.3.1-.4.6-9.6.3-25.2.4-35,0,0,0-1.3,0-1.3,0,0-1.3.1-1.3.1.1,0-16.5,1.7-16,1.7,0,0-.2,0-.3,0-.1,0-20.9-1.3-20.9-1.3,0,0-.8,0-.8,0-.6,9.6-.9,19.2-.9,28.8v4.7c.1.8,0,1.9.2,2.8h-92.7c.4-5.1.9-10.3,1.5-15.4l-1.6-.2c-.9,5.2-1.7,10.4-2.4,15.6h-11.6c-5.5,0-10,4.5-10,10v15.2c-10.7-.4-20.3-.7-21.6-.8-1.1-12.9-.4-25.9,2.6-38.4,9-37.1,39.8-65.2,74.4-79.3,2.4,8.6,7,16.4,13.5,22.3,19.4,18,49.7,12.3,62.4-10.6,2.2-3.9,3.8-8.2,4.7-12.6,10.4,4.2,20.3,9.8,29.5,16.2,34.1,23.6,52.4,61.1,47.9,102.4l-21.6.5v-14.9c0-5.5-4.5-10-10-10ZM425.9,351c-.6,2.3-1.2,5.4-2.7,7-3.4,3.1-7.3,4.9-11.5,6.2v-77.7l17.4-.3c.2,16.1.2,32.3-1,48.4-.4,5.5-1,11-2.1,16.4ZM428.1,352.1c2.8-11.1,3-22.6,3.7-34,.5-10.7.7-21.3.6-32h2s1.3,0,1.3,0c0,0,.1-1.3.1-1.3,4.8-42.7-14.2-81.6-49.6-105.6-10.8-7.4-22.3-13.6-34.7-18,1.5-1.6,3-3.3,4.4-5.1l106.4-18.3c1.5-.1,2.9.8,3.5,2.2l10.3,133.6h-3.2c-1.6,0-3,1.3-3,3v3.2c0,1.6,1.2,2.8,2.8,3l9,.6h-14.9c-1.4,0-2.7.5-3.8,1.4h-1.8c-1.6,0-3,1.3-3,3v6.2c0,1.6,1.3,3,3,3h.3l1,14.9c-1.1.3-2,.8-2.8,1.6-1.1,1.2-1.6,2.7-1.5,4.3l2.3,26.3c.2,2.5,2.1,4.5,4.5,5l.2,3.4-37.6-.2ZM516.6,352.6v1.8c-.1,0-.3,1.8-.3,1.8l-1.1,15.8c-.1,1.5-1.4,2.7-2.9,2.7h-39.4c-1.5,0-2.8-1.2-2.9-2.7l-1.1-15.5v-2.1c-.1,0-.3-2.1-.3-2.1l-.2-3.3h48.5l-.3,3.6ZM519.2,346.1h-52.7c-.5,0-.9-.1-1.3-.3-.8-.4-1.3-1.2-1.4-2.1l-2.3-26.3c0-.8.2-1.5.7-2.1.3-.3.5-.5.9-.6.4-.2.7-.3,1.1-.3h56.5s0,0,0,0c.5,0,1,.1,1.4.4.2.1.4.3.6.4.5.6.8,1.3.7,2l-1.5,26.3c0,1.2-.9,2.2-2,2.5-.2,0-.5.1-.7.1Z"/>
        <path d="M336.9,127.5c2.3,0,4.1-2.8,4.1-6.2s-1.9-6.2-4.1-6.2-4.1,2.8-4.1,6.2,1.9,6.2,4.1,6.2Z"/>
        <path d="M296.2,127.5c2.3,0,4.1-2.8,4.1-6.2s-1.9-6.2-4.1-6.2-4.1,2.8-4.1,6.2,1.9,6.2,4.1,6.2Z"/>
        <path d="M322.8,141.8c.6-1-.5-2.3-1.6-1.7-2.1,1.1-4.3,2.2-6.8,1.4-.9-.2-1.7-.6-2.6-.9-.5-.2-1,.5-.6.9,2.5,4,9.1,4.8,11.6.4Z"/>
        <path d="M259.1,109c0-1-1.6-1-1.6,0,0,5.3.2,10.5,2.9,15.3,1.3,1.7,3.8-.3,2.6-1.9-2.6-3.6-3.4-8.9-3.9-13.4Z"/>
        <path d="M384,303.9s0,0,0,0c0-.3,0-.6-.1-.8,0-.2-.1-.4,0-.6v-.2s0,0,0,0c0-.3-.1-.7-.4-1h0c-.2-.4-.3-.6-.2-.8h0c0-.1,0-.2,0-.2,0,0-.1-.2-.4-.2s0,0,0,0c-.4-.2-.8-.3-1.2-.4-.3-.2-.6-.4-1.2-.6-.3,0-.7-.1-1-.2v-.3s-.4.2-.4.2c0,0-.2-.1-.4-.2-.2-.1-.3-.2-.4-.2h0c-.2-.2-.4-.2-.6-.2-.2,0-.3,0-.4-.1h0c0,0-.1,0-.1,0-.2,0-.5,0-.6-.2h-.2c0,0,0,0,0,0-.2,0-.5,0-.5-.1h0c0,0,0-.1,0-.1-.2-.1-.5-.2-.7-.2,0,0-.2,0-.3,0h-.1s0,0,0,0c0,0,0,0,0,0,0,0,0,0,.2,0,.4-.2.8-.3,1.2-.4.6-.2,1.2-.4,1.8-.6,0,0,.2,0,.3,0,.3,0,.6,0,.9-.1.3,0,.5,0,.9,0s.1,0,.1,0h0c.4-.3.7-.6,1.1-.9.4-.4.8-.7,1.3-.9.2-.1.3-.3.4-.4.1-.2.3-.4.5-.4s0,0,0,0h0c0,0,.1,0,.1,0v-.3s0,0,0,0v.3c.2,0,.3,0,.4,0h.1s0-.1,0-.1c0,0,0,0,.1-.1.2-.2.4-.4.3-.7,0-.3-.2-.6-.4-.8-.2-.2-.4-.2-.6-.2-.4,0-.7.3-.6.3-.1.1-.3.2-.4.4-.3.2-.6.4-.8.7-.2.2-.4.5-.8.6-.2.2-.4.3-.6.4-.2.2-.5.3-.6.5-.3,0-.7.1-1,.2-.6,0-1.2.2-1.7.4-.3,0-.6.2-1,.2-.3,0-.7.1-1.1.3-.4.3-.8.4-1.2.5-.4.1-.8.3-1.2.5h-.1c0,0,0,.1,0,.1-.1,0-.4.3-.3.6,0,.2.2.3.4.3s.1,0,.1,0c0,0,0,0,.2.1-.2,0-.3.2-.3.5h0c0,0,0,.2,0,.2.2.2.5.3.7.4h.2c.4.4.9.7,1.3.9.4.2.8.4,1.2.5.4.2.8.3,1.2.6.2,0,.3,0,.5.1.5.1.9.2,1.3.4l.5.2c.5.2,1.1.4,1.7.6,0,0,0,.2,0,.2,0,.1-.1.3,0,.5,0,0,0,.1,0,.2,0,.1-.1.2-.1.4-.3.5-.4,1.2-.4,1.8h0s0,.1,0,.1c0,.1,0,.3,0,.4-.1.3-.3.7-.3,1h-.1s0,.2,0,.2c0,.3,0,.6-.1.8,0,.3,0,.5-.1.8v.2s.2,0,.2,0c.2,0,.4.1.6.1s.5,0,.7-.1h.3c0,0-.1-.4-.1-.4,0-.1,0-.3,0-.5,0-.2.1-.4.1-.6,0-.2.1-.3.1-.5,0,0,0-.2,0-.3,0-.2.2-.5.2-.7,0,.2,0,.4,0,.7h0c0,.1.1.2.1.2,0,0,0,0,0,.2,0,.2-.1.5.1.8,0,.3.2.5.4.6h.2s0,0,0,0c.3,0,.5-.1.8-.4h0c0,0,0-.2,0-.2,0-.5,0-.9-.1-1.2,0-.3-.1-.5-.1-.9,0-.2,0-.4,0-.5,0-.1,0-.2,0-.3,0,.1.2.2.4.3,0,0,.2,0,.3,0,.2,0,.4-.1.5-.2h0c0,0,0-.2,0-.2,0-.3,0-.5-.2-.7,0,0,0-.2,0-.2Z"/>
        <path d="M397.7,284.3s-.1,0-.1,0c0,0,0,0,0,0l.2-.2h0c0,0,0-.2,0-.2,0-.2-.2-.3-.5-.3-.4.1-.8.2-1.2.4-.2,0-.3.1-.5.2-.3.1-.7.3-1.1.4-.1,0-.2.1-.4.2,0,0,0,0-.1,0,0,0-.2.1-.3.1h0s0,0,0,0c-.2,0-.3.1-.5.2-.4.1-.8.3-1.1.5,0,0-.1,0-.2,0,0,0-.1,0-.2,0s-.1,0-.2,0c-.1,0-.2-.2-.2-.3,0,0-.2-.1-.2-.3-.4-.5-.9-1-1.4-1.5-.4-.4-.9-.8-1.3-1.3,0,0-.2-.2-.2-.2l-.3-.3c-.7-.6-1.4-1.2-2-1.9l-.5-.4h-.2c0,0,0,0,0,0-.3,0-.5,0-.6.2h-.1s0,0-.1,0h-.2c0-.1-.2,0-.2,0,0,0,0,0-.1,0,0,0-.1,0-.2,0h-.2s0,.1,0,.1c-.1.2,0,.4,0,.5,0,0,0,.2,0,.3l-.3.4h.3c0,1.1,0,2,.2,2.7,0,0,0,0,0,0,0,0,0,0,0,0,0-.2-.2-.4-.3-.5-.1-.2-.2-.4-.3-.6v-.4s-.3.1-.3.1c0,0,0-.2-.2-.4-.3-.1-.6-.2-.9-.2-.3,0-.6,0-.9-.2h-.2s-.4,0-.4,0c-.3,0-.4,0-.5-.2h0c0,0-.1-.1-.1-.1,0,0-.2,0-.3,0-.4,0-.6-.1-.7-.3v-.2c0,0-.2,0-.2,0-.7,0-1.2-.5-1.9-.9-.4-.3-.9-.6-1.3-.7h-.1c0,0,0,0,0,0-.1,0-.2-.2-.4-.2s-.3,0-.4.4c0,.4.2.7.4.9h0c0,0,.1,0,.1,0,.3,0,.6.4.9.7l.2.3h.2c0,0,.1,0,.2,0,.4,0,.5.2.5.2h0c0,0,0,.1,0,.1h.1s0,0,0,0c0,0,.1,0,.2,0-.1.2-.3.5-.5.6h-.2c0,.1.2.7.2.7,0,0,0,0,0,0,0,0-.1,0-.2,0h0c-.1-.1-.3-.2-.5-.2s-.5.1-.7.2c0,0-.2,0-.2,0-.3,0-.5.1-.6.1h0c0,0-.1.1-.1.1-.2-.1-.4-.3-.5-.5,0,0,.1,0,.2,0h.2s0-.2,0-.2c.1-.2,0-.4,0-.4v-.2s0,0,0,0c0,0,0,0,0,0,.1,0,.3.2.6.2s.2,0,.2,0v-.2c0-.5-.3-1-.7-1.3,0-.2-.2-.3-.3-.4-.1,0-.2-.2-.2-.2v-.2s-.3,0-.3,0c0,0,0,0,0-.1,0-.1-.2-.3-.5-.3h-.2c0,0-.2.1-.2.2h0c0,0,0,0,0-.2,0-.1,0-.4-.2-.5,0-.3-.2-.5-.3-.7-.1-.2-.2-.4-.2-.6h0c0,0,.1,0,.2,0h.2s.2,0,.2,0h0s0,0,0,0c.2,0,.3-.1.3-.2,0-.2,0-.4-.1-.6h0c0,0,0-.1,0-.1-.2-.1-.5-.2-.7-.3-.3-.1-.6-.2-.9-.5h-.1s0,0,0,0c-.4,0-.6.4-.7.7h0c0,0,0,.2,0,.2,0,.2.1.4.2.7.2.7.4,1.4.9,2,.1.2.2.5.2.7,0,.3.1.6.2.8,0,.5.1,1,.4,1.5h0s0,0,0,0h0s0,0,0,0v.2c0,0,.2.2.2.2v.2c.3.3.4.6.7.9l.3.2.2-.2c0,0,.2,0,.3,0,.3.2.6.4.9.5h0s0,0,0,0c.4,0,.7-.3.9-.5,0,0,.1,0,.2-.1.1.1.3.2.5.2s0,0,0,0c0,0,0,0,0,.1h0c0,.1,0,.2,0,.2,0,0,0,.1,0,.2,0,.2,0,.6.3.8h.2s0,0,0,0c.2,0,.4-.1.5-.2h.1c0-.1,0-.3,0-.3,0,0,0-.1.3-.3h0c0,0,0-.2,0-.2.2-.6.7-.9,1.3-1.2.3-.1.5-.3.7-.4.2,0,.3,0,.5,0,.2,0,.4,0,.6,0s.1,0,.2,0c.1,0,.2,0,.3.3.1.2.3.5.6.5,0,.1,0,.3.1.5,0,.2,0,.4,0,.6v.2c0,.2,0,.3-.1.5,0,.3,0,.5-.3.6-.2.2-.5.2-.9.3h-.2s0,.2,0,.2v.3h0l-.2-.3c0,0-.1,0-.3,0-.4.4-1,.5-1.6.6-.2,0-.4,0-.7.1,0,0,0,0-.2,0-.1,0-.2,0-.3,0-.1,0-.3,0-.4,0s-.3,0-.5.1h0c-.2,0-.3.1-.4.2,0,0-.1,0-.1,0-.3,0-.5.2-.6.3-.1.1-.2.2-.4.2h0s-.3,0-.3,0c-.2,0-.4.1-.4.3-.1-.2-.4-.3-.8-.3s-.2,0-.3,0c0,0-.5,0-.8,0s-.2,0-.2,0c0,0-.2,0-.3,0-.4,0-.5,0-.6,0,0,0-.6,0-.8-.2,0,0-.2-.2-.4-.2-.2,0-.5,0-.7,0s-.5,0-.7.1c0,0,0,0,0,0,0-.2-.1-.4-.5-.5-.4-.2-.8-.3-1.2-.3s-.1,0-.1,0c-.1,0-.3-.1-.4-.3-.2-.1-.3-.3-.6-.4-.1-.1-.2-.1-.3-.1s-.1,0-.2,0c-.2-.4-.5-.8-.8-1.1h0c0,0-.4,0-.4,0,0-.1-.2-.2-.3-.2,0,0,0,0-.1,0,0-.2-.3-.3-.4-.5-.2-.1-.3-.2-.4-.4h0c0-.1-.3-.3-.3-.3-.2-.2-.5-.4-.9-.4s0,0,0,0c0,0-.1-.2-.2-.3-.2-.3-.4-.5-.8-.7h-.1s0,0,0,0c-.3,0-.5-.3-.7-.7,0-.1-.1-.2-.3-.4-.2-.1-.3-.2-.5-.3-.3-.2-.5-.3-.8-.6h0c0,0,0,0,0,0-.1,0-.2-.1-.3-.3-.1-.1-.3-.3-.5-.4-.1,0-.2-.1-.3-.2-.2-.2-.4-.4-.7-.4h0c-.3-.1-.5-.4-.8-.6-.5-.4-1-.8-1.6-.9,0,0-.2,0-.3-.1-.2,0-.4-.2-.6-.2s0,0,0,0c-.2-.1-.4-.2-.6-.3-.4-.2-.7-.4-1-.6h-.2c0-.1-.2,0-.2,0-.3.4-.2.7-.2.8h0c0,0,0,.1,0,.1.2.3.5.4.9.6.3,0,.5.2.8.4.4.2.8.5,1.4.5.2.4.5.5.8.6.2,0,.5.2.6.4h0c0,0,0,.1,0,.1.2.1.3.1.5.2.3,0,.4.1.4.3h0c0,.1.1.2.1.2.2.1.4.2.5.2,0,0,0,0,0,0,0,0,0,0,0,0,.1.2.3.3.5.4,0,0,0,0,0,0-.1,0-.3,0-.4,0-.1,0-.2,0-.4,0-.3,0-.8.1-1,.6,0,0-.2,0-.3,0-.2,0-.4,0-.5.3,0,.1,0,.2,0,.3h0c0,0,0,0,0,0h0c-.2.2-.4.3-.6.3-.3,0-.5.2-.8.3-.1,0-.2.1-.3.2-.4.3-.8.5-1.2.6h-.1s0,0,0,0c0,0-.1.1-.3.1s-.2,0-.3,0h-.2c0,0-.1.1-.1.1-.2.4-.3.7,0,1.1h.1c0,.1.3,0,.3,0,.3,0,.8,0,1.1-.5.2-.2.5-.2.9-.2.5,0,1,0,1.4-.6,0,0,.1,0,.2,0,0,.1-.2.2-.2.3-.2.3-.5.6-.5,1,0,.2,0,.4,0,.5,0,.4,0,.7-.3.9h-.1c0,0,0,.2,0,.2,0,0,0,.2-.1.3-.1.2-.2.4-.1.7,0,.1.2.3.3.3h0s0,0,0,0c.5,0,.6-.5.7-.7.2-.2.3-.4.4-.6,0,.8-.2,1.5-.3,2.3v.3c.1.2.3.3.6.3s.1,0,.3,0c0,0,0-.1.1-.2v-.2c.3-.3.3-.5.3-.8,0-.2,0-.5.2-.7,0-.4.2-.8.3-1.1.1-.5.3-1.1.4-1.7,0-.1,0-.3,0-.4,0-.2,0-.3,0-.5,0-.2,0-.4,0-.6,0-.2,0-.4.1-.5,0,.2.2.3.3.5.2.3.4.6.4.9h0c0,0,0,.2,0,.2,0,0,.1.2.2.3,0,.2.1.4.3.6.1.5.3.7.5.8.3.3.3.7.3,1.2,0,.5,0,.9.3,1.3,0,.1,0,.2,0,.4,0,.1,0,.3,0,.4.1.6.3,1.2.5,1.7v.3c0,0,.2,0,.2,0,0,0,0,0,0,0-.2,0-.3.1-.3.2l-.2.2v.2c0,0,0,.3.1.5h0c0,0,0,0,0,0,.5.3,1,.4,1.6.4s1.1,0,1.7-.3h.1s0-.1,0-.1c0,0,.4-.3.6-.4h0c0,0,0-.2,0-.2,0-.2,0-.4,0-.5.3,0,.6,0,.8-.2.2,0,.3-.1.5-.1s.2,0,.2,0h0c.2-.4.4-.5.7-.7.2,0,.4-.2.6-.4h.2s.2,0,.2,0v-.3c.1,0,.3-.2.5-.4,0,0,0,0,0,0,0,.1.1.2.3.3h.1s0,0,0,0c0,0,.2,0,.2,0,0,.2-.1.4-.2.5,0,.2-.1.4-.2.7h0c0,0,0,.1,0,.1,0,.3,0,.5,0,.6h0c0,0,0,.2,0,.2,0,.4,0,.8,0,1.2.1.7.2,1.1-.2,1.5h0c0,0,0,.2,0,.2,0,.4-.2.6-.5.8-.2.2-.4.4-.6.7,0,0,0,0-.1,0,0,0,0,0,0,0s0,0,0,0c-.3-.2-.6-.2-.8-.2-.2,0-.3,0-.4,0-.4-.2-.9-.5-1.3-.5h0c-.5-.3-1-.7-1.5-1-.3-.2-.5-.4-.9-.6-.4-.1-.8-.4-1.1-.7l-.3-.2c-1-.5-1.9-1-2.9-1s-.6,0-.9.1h-.1s0,.1,0,.1c0,.2-.2.3-.3.5-.2.3-.4.6-.5.9h0c0,.1,0,.2,0,.2.1.2.3.3.5.3s.2,0,.3,0h.3c-.2,0-.4.2-.7.3-.1.1-.3.2-.5.3-.2,0-.3.2-.5.3,0,0-.3.2-.5.4v-.3s-.4.1-.4.1c-.2,0-.5.1-.8.2-.6.1-1.2.2-1.6.6,0,0,0,0-.2,0s-.3,0-.3,0c-.3,0-.5.1-.6.3h-.1c0,.1-.2,0-.2,0v1c0,0,0,1.2,0,1.2h0s0,.1,0,.1c0,.4,0,.8,0,.8s0,0,0,0c0,.2.1.5.4.5h0s0,0,0,0c.2,0,.3-.2.5-.3.2-.1.3-.2.4-.2h0s0,0,0,0c.5-.3.8-.7,1.2-1.1l.2-.2c.3-.4.6-.8,1-1.1h0c0,0,.1,0,.1,0v-.2c0-.2,0-.4,0-.6,0,0,.2,0,.3,0h.4c.2-.1.3-.2.4-.3.2,0,.4-.2.6-.4.2-.2.3-.3.5-.3s.2,0,.2,0h0c.2-.4.5-.5.9-.6.3-.1.6-.3.9-.5h0s0-.1,0-.1c0,0,0,0,.1-.1.1,0,.2-.2.2-.2h0c0,0,.2.1.2.1.3,0,.5.1.6.3.6.5,1.2.9,1.8,1.3.2.1.4.3.6.4.5.4,1,.8,1.5.9.2.1.4.2.6.2.2,0,.4.1.7.3,0,0,0,0-.1,0-.1,0-.3.2-.4.4h0c0,.1,0,.2,0,.2,0,.2.3.3.5.3.2.4.6.4.9.4.2,0,.3,0,.4,0,.2.2.5.2.8.2s.6,0,.9-.2c.2,0,.3-.1.5-.1h0s0,0,0,0c.8-.8,1.3-1.5,1.2-2.6v-.3c.2-.2.1-.6,0-.8h-.1c0,0,0,0,0,0,0-.1.1-.2.1-.2l.4-.3h0c.1,0,.3,0,.4,0h.1s0,0,0,0c.2-.3.3-.6.4-1,0-.1,0-.3.1-.4.3-1.1.9-2.1,1.7-2.8,0,0,.2-.2.3-.2h0c0,.3-.2.4-.4.5-.2.2-.5.5-.6.9-.5.4-.6.9-.7,1.4,0,.3,0,.5-.2.7h0c0,0,0,.2,0,.2,0,0,0,0,0,.1,0,.2.1.6.5.7h0s.2,0,.2,0c.2,0,.4,0,.7-.3h.1c0,0,0-.2,0-.2,0-.8.2-1.5.6-2.2,0,.1,0,.2,0,.3,0,.3,0,.6-.1.9,0,.2-.2.6,0,1h0c0,.1.1.1.1.1.1,0,.3,0,.5,0s.2,0,.4,0c.3-.3.4-.6.4-.9,0-.2,0-.4.1-.6,0-.2.1-.3.2-.5.1-.4.3-.8.5-1.1,0,0,.1-.1.2-.2-.1.3-.2.6-.3,1,0,.2,0,.4-.1.6,0,.4-.2.9,0,1.4,0,.2.3.3.5.3s.2,0,.4-.1l.3-.3h0c.1-.5.2-.9.2-1.3,0-.7.2-1.4.6-1.9.1-.4.3-.7.5-1,0-.1.2-.3.2-.3,0,0,.1,0,.2,0,0,0,0,0,0,0-.1.2-.2.5-.3.7,0,.2-.1.3-.2.4,0,0,0,.1-.1.2v.2c-.5.7-1,1.9-.5,3,.1.1.3.2.4.2s.3,0,.5-.1h.1s0-.1,0-.1c.2-.4.2-.8.1-1.2,0-.2,0-.4,0-.5.3-.3.4-.7.6-1.1v-.2c.2-.5.3-1,.5-1.3l1-.7c-.3.4-.5,1-.6,1.5,0,.2,0,.3-.1.5,0,0,0,.2-.1.3,0,0,0,.2-.1.3l-.2,1.2h.2c0,.2,0,.4.1.5,0,.1.1.3.4.4h0c0,0,0,0,0,0,.6-.1.7-.6.7-1,0-.1,0-.2,0-.4,0-.2,0-.5.1-.7,0-.1,0-.3.1-.4,0-.3.2-.6.2-1,0-.3.1-.6.3-1v-.2c.2-.2.4-.2.6-.3.1,0,.3-.2.4-.2.1,0,.3,0,.5,0,.3,0,.7,0,1-.4.5-.3.8-.8.9-1.3,0,.2,0,.5.1.7,0,0,0,.1-.2.2-.2.1-.5.4-.4.8,0,.3,0,.3-.3.5,0,0-.1.1-.2.2l-.2.2.3.2c0,0,.3.2.3.2,0,0,0,0,0,0,0,.2.3.5.8.5s.2,0,.3,0c.3,0,.7-.3.7-.8,0-.4.1-.7.3-.9h.1c0-.1,0-.3,0-.3,0,0,0-.2,0-.3,0-.2,0-.4,0-.6,0-.4,0-.8-.2-1.2,0-.2-.1-.4-.2-.5,0-.2,0-.4,0-.6,0-.2,0-.3,0-.6-.2-1.1-.4-2-.5-2.9,0,0,0,0,0,0,0,0,.1.2.3.3.1.3.3.5.5.7.1.1.3.3.4.5.8.8,1.4,1.6,2,2.5l.4.4c.2.2.4.5.7.7.4.5.9,1,1.3,1.5.2.2.4.2.6.2.1,0,.2,0,.3,0h.1c0,.1.2,0,.2,0,0,0,.3,0,.4-.1.3,0,.9-.1.9-.8.1,0,.3.1.5.1.3,0,.5,0,.7-.2.1,0,.3,0,.3,0,.2,0,.4,0,.6,0,.3,0,.6,0,.9,0,.3,0,.6-.1.9-.2.2,0,.3,0,.4-.2,0,0,.1-.2,0-.5,0,0,0,0,0-.1,0,0,0,0,.1,0,.2,0,.5,0,.6-.4,0,0,.2,0,.2-.1.2,0,.5-.2.5-.4,0-.2,0-.3-.2-.5h0ZM364.9,289.2c-.3.3-.6.5-.9.7-.2.1-.4.3-.6.4-.6.2-1.1.3-1.7.4h0s0,0,0,0c-.2.2-.6.4-1.1.4s-.2,0-.3,0c0,0,0,0-.1-.1-.3-.3-.4-.4-.3-.7-.2-1.3-.6-2.6-1-3.6-.2-.6-.5-1.3-.8-1.9l-.2-.4-.4-1c0,0-.2-.1-.3-.2.2,0,.3-.3.3-.4h0c0,0,0-.2,0-.2,0-.1,0-.4,0-.6,0,0,.2,0,.3,0,.3.4.6.6,1,.8.3.2.6.4.9.7h0c0,0,.1.1.1.1.2,0,.3.1.5.4.1.2.3.3.6.5.1,0,.2,0,.3,0,.2,0,.4,0,.5.2.1.2.2.4.3.5.2.3.3.7.7,1,.3.2.6.3.9.4.4.1.8.2,1,.6-.3.2-.3.5-.2.7.1.3.3.3.5.3s0,0,.1,0c0,0,0,0,0,.2,0,.3,0,.5,0,.7ZM368.1,294.3v-.3s0,.2,0,.2c0,0,0,0,0,0h-.1ZM370.4,289.6c-.2,0-.4.1-.6.3-.2.3-.4.6-.7.9-.3.2-.2.4-.2.6,0,0,0,.1,0,.2,0,.2-.2.4-.3.6-.2.5-.4.9-.5,1.5,0-.4,0-.8-.2-1,0-.5.1-.9.2-1.4v-.2s0,0,0,0c-.1-.3,0-.6.2-.9.2-.2.2-.3.3-.3h.1c.3,0,.7-.1,1-.3,0,0,.1,0,.3,0s.3,0,.3,0c0,0,.1,0,.4,0,0,0,0,.1-.3.2ZM372.1,289.9h0c-.1,0-.2.1-.2.2h-.2c.1-.1.3-.2.4-.3,0,0,0,0,0,.1ZM383.5,285.8c0-.1,0-.2,0-.4,0,0,0-.1,0-.2,0,0,0,.4,0,.6h0Z"/>
        <path d="M291.5,363.8h0s0,0,0,0c0,0,0,0,0,0Z"/>
        <path d="M362.2,360.7l-123.2-12.4c-2.1-.2-4.1,1.3-4.3,3.5l-1.6,15.7-.2,2.1-.3,3.1c-.2,2.1,1.3,4.1,3.5,4.3l123.2,12.4c2.1.2,4.1-1.3,4.3-3.5l2.1-20.9c.2-2.1-1.3-4.1-3.5-4.3ZM345.7,365.9c-.4,0-1,0-1.3-.1.5,0,1.1.1,1.3.1ZM249.2,371.2c-.7.5-1.5.8-2.2,1.1l-2.5-.8c1.3,0,2.3-.2,3-.7.7-.5,1.1-1.4,1.3-2.5,0-1.5-.4-2.7-1.7-3.4-.5-.3-1.2-.5-2-.6.8-.1,1.4-.3,1.9-.7.6-.5,1-1.3,1.1-2.4.1-2.2-1-3.8-3.9-4-.9,0-1.2,0-1.3.7,0,.9-1,10.9-1,10.9,0,.3,0,.6,0,.9,0,.4,0,.8,0,1,0,.3.2.5.2.5,0,0-.2,0-.2,0q-.5,0-1.2-.1c-.8,0-.9,0-1.5-.1,0,0,0,0-.2,0,0,0,0,0,.3-.4.2-.3.3-.8.4-1.3,0-.2,0-.4,0-.6,0-1,.7-7.9.8-9.2,0-.7.3-2.8,0-3.2,0,0-.3-.1-.2-.2,0,0,0,0,0,0,.6,0,.8.2,1.5.2.5,0,1.6.1,2.1.2,3.8.2,6.1,1.4,6,5,0,1.4-.7,2.3-1.6,2.9,1.5.7,2.3,2,2.2,4.2,0,1.4-.7,2.3-1.6,2.9ZM263.4,373.1c-.7,0-1,0-1,0,.2-.3.2-.8,0-1.3,0,0-.3-.8-.3-1.1-.9-2.8-2.9-9-2.9-9-.1-.4,0-.4-.3,0,0,0-3.1,5.7-4.5,8.3-.1.3-.4.9-.5,1-.2.4-.3.8-.3,1.1,0,0,0,.1,0,.2,0,0-.3,0-.9,0-.7,0-2-.2-2-.2,0,0,0,0,.3-.3,0,0,0,0,0,0,.2-.2.8-1.1,1.4-2,2-3.6,6.6-12,6.6-12,.2-.4.4-.4.6,0,0,0,2.9,9.1,4.2,13,.3,1.1.8,2.1.9,2.3.3.5.4.5.4.5,0,0-1.4-.1-2-.2ZM276.2,374.6c-1.3-.1-1.9-.9-2.3-1.5-.2-.5-3.5-6.2-3.5-6.2,2.6,0,4-.9,4.2-3.2.1-2.2-1-3.8-3.9-4-.9,0-1.2,0-1.3.7,0,.9-1,10.9-1,10.9,0,.7-.1,1.6,0,1.9,0,.3.2.5.2.5,0,0-.2,0-.2,0q-.5,0-1.2-.1c-.8,0-.9,0-1.5-.1,0,0,0,0-.2,0,0,0,0,0,.3-.4.2-.4.4-1.3.5-2,0-1,.7-7.9.8-9.2,0-.7.3-2.8,0-3.2,0,0-.3-.1-.2-.2,0,0,0,0,0,0,.6,0,.8.2,1.5.2.5,0,1.6.1,2.1.2,3.8.2,6.1,1.4,6,5-.2,2.5-2.1,3.5-3.8,4,0,0,3.3,5.8,4,6.6.3.4.4.5.4.5,0,0-.5,0-1.1-.1ZM291.8,365l-.3-1.1c-.8-1.4-3-2.5-4.4-2.6-3.9-.4-6.7,1.9-7.1,5.9-.2,3.3,2,6.7,5.6,7.1,2,.2,4.3-.1,5.7-1.6l.3.3s-.2.6-.6,1.3c-.3.6-.6,1.2-.6,1.2-1.4.2-3.3.3-4.7.2-5.2-.5-8.2-4-7.7-8.7.6-5,4.2-7.5,9.3-6.9,2,.2,3.7,1,4.2,1.1,0,0,.4,0,.5,0,0,0-.2.7-.1,1.4,0,.5,0,1.1.1,1.6,0,0,0,0,0-.2,0-1.8.2,1,.2,1h-.4ZM293.1,364.2l.4-4.7,2.8.3-3.3,4.4ZM306.2,363.8l-2.2-.2c0,.8-.8,8.1-1,10.9,0,.7-.1,1.6,0,1.8,0,.4.2.5.2.5,0,0,0,0,0,0-.5,0-.7-.2-1.3-.2-.8,0-.9,0-1.4,0,0,0-.2,0-.2-.1l.3-.4c.2-.4.3-1.2.4-1.9.3-2.7.9-9.7,1-10.9l-2.6-.2c-.7,0-2,0-2.4,0-.3,0-.5.3-.5.2,0,0,0,0,0,0,0-.5.2-1.5.3-2.1,1.8.2,10.5,1,12.3,1.2,0,.6-.1,1.6-.2,2.1,0,0,0,0,0,0,0,0-.2-.2-.5-.3-.3-.1-1.4-.3-2.1-.4ZM319.4,363.8c0,.7,0,1-.1,1.6,0,0,0,0,0,0,0,0-.2-.2-.5-.3-.3-.1-1.1-.3-1.7-.3l-4.5-.5-.5,4.8,3.4.3c.7,0,2.1.3,2.4.2.3,0,.5-.3.5-.2,0,0,0,0,0,0,0,.5,0,.3,0,1,0,.8,0,.4,0,.9v.2c-.1,0,0,0-.4-.3-.4-.1-1.9-.3-2.6-.3l-3.4-.3-.5,5.3,4.7.5c.7,0,1.5,0,1.8,0,.3-.1.6-.4.6-.3,0,0,0,0,0,0,0,.5-.2,1-.3,1.7v.4c-.9,0-1.2-.1-2.6-.2l-5.4-.5c-.7,0-.8,0-1.3,0,0,0,0,0-.2-.1,0,0,0,0,.3-.4.3-.4.4-1.2.4-1.9.1-1.3.3-3.4.5-5.4s.3-3.6.5-4.9c0-.7.1-1.5,0-1.9-.1-.4-.2-.4-.2-.5,0,0,.2,0,.2,0,.5,0,.6.1,1.3.2l4.9.5c1.4.1,2.1.2,2.8.3v.4ZM331.5,379.9c-1.2-.1-1.9-.9-2.2-1.5-.3-.5-3.5-6.2-3.5-6.2,2.5,0,3.9-.9,4.1-3.3.2-2.2-.9-3.7-3.9-4-.9,0-1.2,0-1.3.7,0,.9-1,10.9-1,10.9,0,.7,0,1.6,0,1.9.1.3.3.5.3.6,0,0-.2,0-.2,0-.5,0-.6,0-1.3-.1-.7,0-.9,0-1.5-.1,0,0,0,0,0,0q0,0,.3-.4c.2-.4.3-1.3.4-2,0-1,.8-7.9.9-9.2,0-.7.3-2.8,0-3.2,0,0-.2-.1-.2-.2,0,0,.2,0,.2,0,.5,0,.8.2,1.5.2.6,0,1.6.2,2.1.2,3.8.2,6.2,1.4,6,5-.2,2.5-2.1,3.5-3.8,4,0,0,3.3,5.8,4,6.6.4.4.5.5.5.5,0,0-.5,0-1.2-.1ZM356.4,367.5c-.5.3-5.5,6.3-5.5,6.3,0,0,4,7.4,4.4,7.7.4.5.5.5.5.5,0,0-1.3-.2-1.9-.3-.7,0-1.6,0-1.6,0,.2-.3.2-.8,0-1.2-.2-.5-2.4-4.8-2.6-4.9-.2.2-3.2,3.9-3.5,4.4-.3.4-.4.8-.3,1.2,0,0-.8-.2-1.5-.2-.6,0-2-.1-2-.1,0,0,.2,0,.6-.4.5-.3,5.7-6.6,5.7-6.6,0,0-3-5.8-4-7.3-1.1,1.1-5.4,6.6-5.4,6.6l-.5,5c0,.6,0,1.5,0,1.8,0,.3.3.5.2.5,0,0,0,0,0,0-.5,0-.7,0-1.4-.1-.8,0-.9,0-1.4-.1,0,0-.2,0-.2,0,0,0,0,0,.3-.4.2-.4.5-2,.5-2.7l.4-4.1s-4-7.4-4.4-7.7c-.4-.5-.6-.5-.6-.5,0,0,1.4.2,2,.3.7,0,1.6,0,1.6,0-.1.3-.2.8.1,1.2.2.5,2.5,4.8,2.7,5,.2-.2,3.2-4,3.5-4.4.3-.5.4-.8.3-1.2,0,0,.7,0,1.4.1,0,0,.2,0,.3,0,0,0,0,0,.2,0,0,0-.1,0-.2,0,0,0,0,0,.4.4,0,0,.2.2.3.3.1-.1.2-.2.2-.2.5,0,.7-.4.7-.4,0,0,0,0,0,0,0,0,.2,0,.2,0,.7,0,1.6,0,1.6.1-.1.3-.2.8.1,1.2.2.5,2.3,4.6,2.5,4.8.2-.2,3.1-3.7,3.4-4.1.4-.5.4-.9.4-1.3,0,0,.9,0,1.6.1.6,0,1.8.2,1.8.2,0,0-.4.1-.7.5Z"/>
        <path d="M291.7,364.1c0,.2.2.4.2.6,0,0,.1.3.2.1,0-.2,0-.5,0-.7,0,.5-.2.3-.3,0Z"/>
        <path d="M309.9,338.5c1.4,0,2.7-.2,4-.7.4-.1.8-.2,1.2-.2.4,0,.8.1,1.2.3,1.3.6,2.6.8,4,.9,7.8.2,13.8-12.8,14-21.7.2-9.4-5.5-16.9-13-17.1-.7,0-1.4,0-2,.2l-1.7.3.8-1.5c1.2-2.1,3.5-3.4,5.9-3.4.2,0,.4,0,.5,0,.8,0,1.4-.6,1.4-1.3,0-.8-.6-1.4-1.4-1.4-.2,0-.4,0-.6,0-4.3-.1-8.1,2.7-9.2,6.9l-.2.8-.8-.3c-1-.4-2.1-.6-3.2-.6-7.5-.2-13.7,7-13.9,16.4-.2,8.9,5.1,22.2,12.9,22.4ZM310.8,302.5c1.6,0,3.1.5,4.5,1.5.2.1.5.2.7.2.3,0,.5,0,.7-.2,1.4-.9,3-1.3,4.6-1.2,5.2.1,10.5,5.5,10.3,14.3-.2,9.2-6.1,19.2-11.2,19.1-1.3,0-2.1-.4-2.9-.6-.7-.3-1.3-.5-2.3-.5-1,0-1.6.2-2.3.4-.7.2-1.6.5-2.9.5-5.1-.1-10.5-10.4-10.2-19.6.2-8.8,5.8-13.8,11-13.7Z"/>
        <path d="M356.2,245.8h3.6v-6.8c-.3,1-1.3,1.5-2.2,1.3-.9-.3-1.4-1.3-1.1-2.3.1-.3.3-.6.5-.8,0,0,.6-.6,1.6-.3h0c-.6,0-1.1.5-1.1,1.2s.5,1.2,1.1,1.2.9-.3,1-.8c0,0,0,0,0-.3,0,0,0,0,0,0,0-.4,0-1.1-.8-1.7-1.1-.8-2.6-.7-2.6-.7-2.7,0-4.9,2.2-4.9,5s2.2,5,4.9,5Z"/>
        <path d="M349.9,253.3h12.4c1.9,0,3.5-1.6,3.5-3.5v-15.1c0-1.9-1.6-3.5-3.5-3.5h-12.4c-1.9,0-3.5,1.6-3.5,3.5v15.1c0,1.9,1.6,3.5,3.5,3.5ZM348,234.7c0-1.1.9-1.9,1.9-1.9h12.4c1.1,0,1.9.9,1.9,1.9v15.1c0,1.1-.9,1.9-1.9,1.9h-12.4c-1.1,0-1.9-.9-1.9-1.9v-15.1Z"/>
        <polygon points="362 248.4 361.9 247.2 350.1 247.9 350.1 249.1 362 248.4"/>
      </g>
    </g>
  </g>
</svg>