<?xml version="1.0" encoding="UTF-8"?>
<svg xmlns="http://www.w3.org/2000/svg" width="300" height="62" version="1.1" viewBox="0 0 300 62">
  <!-- Generator: Adobe Illustrator 28.7.1, SVG Export Plug-In . SVG Version: 1.2.0 Build 142)  -->
  <g>
    <g id="Layer_2">
      <g>
        <g>
          <path d="M105.2,15c2,0,3.7.3,5.1.9,1.4.6,2.5,1.4,3.4,2.3.9,1,1.5,2,1.9,3.3.4,1.2.6,2.5.6,3.8s-.2,2.5-.6,3.8c-.4,1.2-1,2.3-1.9,3.3-.9,1-2,1.7-3.4,2.3-1.4.6-3.1.9-5.1.9h-7.4v11.5h-7V15h14.4ZM103.3,30c.8,0,1.6,0,2.3-.2.7-.1,1.4-.4,2-.7.6-.3,1-.8,1.4-1.5.3-.6.5-1.4.5-2.5s-.2-1.8-.5-2.5c-.3-.6-.8-1.1-1.4-1.5-.6-.3-1.2-.6-2-.7-.7-.1-1.5-.2-2.3-.2h-5.5v9.6h5.5Z"/>
          <path d="M117.1,30.4c.6-1.5,1.4-2.8,2.4-3.9,1-1.1,2.3-1.9,3.8-2.5,1.5-.6,3.1-.9,4.9-.9s3.5.3,4.9.9c1.5.6,2.7,1.4,3.8,2.5,1,1.1,1.9,2.3,2.4,3.9.6,1.5.9,3.2.9,5s-.3,3.5-.9,5c-.6,1.5-1.4,2.8-2.4,3.8-1,1.1-2.3,1.9-3.8,2.4-1.5.6-3.1.9-4.9.9s-3.5-.3-4.9-.9c-1.5-.6-2.7-1.4-3.8-2.4-1-1.1-1.9-2.3-2.4-3.8-.6-1.5-.9-3.2-.9-5s.3-3.5.9-5ZM122.9,38.1c.2.9.5,1.7.9,2.4.4.7,1,1.3,1.7,1.7.7.4,1.6.6,2.7.6s2-.2,2.7-.6c.7-.4,1.3-1,1.7-1.7.4-.7.7-1.5.9-2.4.2-.9.3-1.8.3-2.7s0-1.8-.3-2.7-.5-1.7-.9-2.4c-.4-.7-1-1.2-1.7-1.7-.7-.4-1.6-.6-2.7-.6s-2,.2-2.7.6c-.7.4-1.3,1-1.7,1.7-.4.7-.7,1.5-.9,2.4s-.3,1.8-.3,2.7,0,1.8.3,2.7Z"/>
          <path d="M157.9,47v-3.2h-.1c-.8,1.3-1.9,2.3-3.1,2.9-1.3.6-2.6.9-3.9.9s-3.1-.2-4.2-.7c-1.1-.4-1.9-1.1-2.6-1.9-.6-.8-1.1-1.8-1.3-3-.3-1.2-.4-2.5-.4-3.9v-14.2h6.4v13.1c0,1.9.3,3.3.9,4.3.6.9,1.7,1.4,3.2,1.4s3-.5,3.8-1.5c.8-1,1.2-2.7,1.2-5.1v-12.1h6.4v23.1h-6Z"/>
          <path d="M173.6,23.8v4.3h0c.3-.7.7-1.4,1.2-2,.5-.6,1.1-1.1,1.7-1.6.7-.4,1.4-.8,2.1-1,.7-.2,1.5-.4,2.3-.4s.9,0,1.4.2v5.9c-.3,0-.7-.1-1.1-.2-.4,0-.8,0-1.2,0-1.2,0-2.1.2-3,.6-.8.4-1.5.9-1.9,1.6s-.8,1.5-1.1,2.4c-.2.9-.3,1.9-.3,2.9v10.4h-6.4v-23.1h6Z"/>
          <path d="M190.9,39.1c.4.7.9,1.4,1.5,1.8.6.5,1.4.8,2.3,1,.9.2,1.8.3,2.7.3s1.3,0,2-.2c.7-.1,1.4-.3,2-.6.6-.3,1.1-.7,1.6-1.2.4-.5.6-1.2.6-2s-.3-1.6-.8-2.1c-.6-.5-1.3-1-2.2-1.3-.9-.4-1.9-.7-3-.9-1.1-.3-2.3-.6-3.4-.9-1.2-.3-2.4-.7-3.5-1.1-1.1-.4-2.1-1-3-1.7-.9-.7-1.6-1.5-2.2-2.6-.6-1-.8-2.3-.8-3.7s.4-3.1,1.1-4.3c.7-1.2,1.6-2.2,2.8-3,1.1-.8,2.4-1.4,3.9-1.8,1.4-.4,2.9-.6,4.3-.6s3.3.2,4.8.6c1.5.4,2.9,1,4.1,1.8,1.2.8,2.1,1.9,2.8,3.2.7,1.3,1.1,2.9,1.1,4.7h-6.8c0-1-.3-1.7-.6-2.4-.3-.6-.8-1.1-1.4-1.5-.6-.4-1.2-.6-1.9-.8-.7-.1-1.5-.2-2.4-.2s-1.1,0-1.7.2c-.6.1-1.1.3-1.5.6-.5.3-.8.7-1.1,1.1-.3.4-.4,1-.4,1.7s.1,1.1.4,1.5c.2.4.7.7,1.4,1.1.7.3,1.7.7,2.9,1,1.2.3,2.9.7,4.9,1.3.6.1,1.4.3,2.5.6,1.1.3,2.1.8,3.2,1.5,1,.7,1.9,1.6,2.7,2.8.8,1.1,1.1,2.6,1.1,4.4s-.3,2.8-.9,4.1c-.6,1.3-1.4,2.3-2.5,3.2-1.1.9-2.5,1.6-4.2,2.1-1.7.5-3.6.8-5.8.8s-3.5-.2-5.1-.6c-1.7-.4-3.1-1.1-4.4-2-1.3-.9-2.3-2.1-3-3.5-.7-1.4-1.1-3.1-1.1-5.1h6.8c0,1.1.2,2,.6,2.7Z"/>
          <path d="M213.7,30.6c.6-1.5,1.4-2.8,2.4-3.9,1-1.1,2.3-1.9,3.8-2.5,1.5-.6,3.1-.9,4.9-.9s3.5.3,4.9.9c1.5.6,2.7,1.4,3.8,2.5,1,1.1,1.9,2.3,2.4,3.9.6,1.5.9,3.2.9,5s-.3,3.5-.9,5c-.6,1.5-1.4,2.8-2.4,3.8-1,1.1-2.3,1.9-3.8,2.4s-3.1.9-4.9.9-3.5-.3-4.9-.9c-1.5-.6-2.7-1.4-3.8-2.4-1-1.1-1.9-2.3-2.4-3.8-.6-1.5-.9-3.2-.9-5s.3-3.5.9-5ZM219.5,38.3c.2.9.5,1.7.9,2.4.4.7,1,1.3,1.7,1.7.7.4,1.6.6,2.7.6s2-.2,2.7-.6c.7-.4,1.3-1,1.7-1.7.4-.7.7-1.5.9-2.4.2-.9.3-1.8.3-2.7s0-1.8-.3-2.7-.5-1.7-.9-2.4c-.4-.7-1-1.2-1.7-1.7-.7-.4-1.6-.6-2.7-.6s-2,.2-2.7.6c-.7.4-1.3,1-1.7,1.7-.4.7-.7,1.5-.9,2.4-.2.9-.3,1.8-.3,2.7s0,1.8.3,2.7Z"/>
          <path d="M245.2,24v3.1h0c.8-1.2,1.8-2.1,3-2.8,1.2-.7,2.5-1,4.1-1s2.8.3,4,.9c1.2.6,2.1,1.6,2.8,3,.7-1,1.6-1.9,2.8-2.7,1.2-.8,2.6-1.2,4.2-1.2s2.4.1,3.4.4c1,.3,1.9.8,2.7,1.4.7.7,1.3,1.5,1.7,2.6.4,1.1.6,2.3.6,3.8v15.5h-6.4v-13.1c0-.8,0-1.5,0-2.2,0-.7-.2-1.3-.5-1.8-.3-.5-.7-.9-1.2-1.2-.5-.3-1.2-.4-2.1-.4s-1.6.2-2.2.5c-.6.3-1,.8-1.3,1.3-.3.6-.5,1.2-.6,1.9-.1.7-.2,1.4-.2,2.1v12.9h-6.4v-13c0-.7,0-1.4,0-2s-.2-1.3-.4-1.9c-.2-.6-.6-1-1.1-1.4-.5-.3-1.3-.5-2.3-.5s-.7,0-1.2.2c-.5.1-1,.4-1.4.8-.5.4-.9.9-1.2,1.6-.3.7-.5,1.6-.5,2.8v13.4h-6.4v-23.1h6Z"/>
          <path d="M284.8,41.6c1,.9,2.3,1.4,4.1,1.4s2.4-.3,3.3-1c.9-.6,1.5-1.3,1.7-2h5.6c-.9,2.8-2.3,4.8-4.1,6-1.9,1.2-4.1,1.8-6.7,1.8s-3.5-.3-4.9-.9c-1.5-.6-2.7-1.4-3.7-2.5-1-1.1-1.8-2.4-2.4-3.9-.6-1.5-.8-3.1-.8-4.9s.3-3.3.9-4.8c.6-1.5,1.4-2.8,2.4-3.9,1-1.1,2.3-1.9,3.7-2.6,1.4-.6,3.1-.9,4.8-.9s3.7.4,5.1,1.1c1.5.8,2.7,1.8,3.6,3.1.9,1.3,1.6,2.7,2,4.4.4,1.6.6,3.4.4,5.1h-16.7c0,2.1.6,3.6,1.6,4.5ZM292,29.5c-.8-.8-1.9-1.3-3.5-1.3s-1.9.2-2.5.5c-.7.3-1.2.8-1.6,1.3-.4.5-.7,1-.9,1.6-.2.6-.3,1.1-.3,1.5h10.3c-.3-1.6-.8-2.8-1.6-3.7Z"/>
        </g>
        <path d="M63.8,15.2h-.6v-2.4C63.2,6,49,.5,31.6.5S0,6,0,12.8v17.2c0,3.1.4,6,1.2,8.8,3.8,13.2,15.9,22.8,30.3,22.8h0c.9,0,1.8,0,2.7-.1-1.3-2.4-2-5.4-2.3-9.1-.1,0-.3,0-.4,0-7.6,0-14.7-2.9-18.5-7.6-.5-.6-.4-1.6.2-2.1s1.6-.4,2.1.2c3.3,4,9.5,6.5,16.2,6.5s.2,0,.4,0c0-3,.4-5.7.6-7.4h-4.1c-1.1,0-2.1-.5-2.8-1.2-.7-.8-1.1-1.9-.9-2.9.5-4.4,2.9-9.8,5.2-14.1.5,0,.9,0,1.4,0,.7,0,1.3,0,2,0-2.4,4.3-5.2,10-5.7,14.4,0,.3.1.5.2.6,0,0,.3.3.6.3h7.7l-.4,1.8s-.8,3.8-.9,8.4c5.4-.7,10.1-3,12.9-6.3.5-.6,1.5-.7,2.1-.2.6.5.7,1.5.2,2.1-3.3,4-8.9,6.6-15.1,7.4.2,3.9,1.1,6.9,2.5,8.9,8.8-1.7,16.2-7,20.8-14.3h5.4c8.7,0,15.7-7.1,15.7-15.7h0c0-8.7-7.1-15.7-15.7-15.7ZM20.1,32.6c0,.8-.7,1.5-1.5,1.5s-1.5-.7-1.5-1.5v-3.7c0-.8.7-1.5,1.5-1.5s1.5.7,1.5,1.5v3.7ZM6.6,11.6c0-4.3,11.1-7.8,24.8-7.8s24.8,3.5,24.8,7.8-11.1,7.8-24.8,7.8S6.6,15.9,6.6,11.6ZM46,32.6c0,.8-.7,1.5-1.5,1.5s-1.5-.7-1.5-1.5v-3.7c0-.8.7-1.5,1.5-1.5s1.5.7,1.5,1.5v3.7ZM63.8,41.3h-2.7c.3-.8.6-1.7.9-2.6.8-2.8,1.2-5.7,1.2-8.8v-9.4h.6c5.7,0,10.4,4.7,10.4,10.4s-4.7,10.4-10.4,10.4Z"/>
      </g>
    </g>
  </g>
</svg>